<svg width="682" height="557" viewBox="0 0 682 557" fill="none" xmlns="http://www.w3.org/2000/svg">
<path d="M408.755 17.7906L206.148 134.822L209.032 139.818L411.638 22.7897C413.019 21.9932 413.49 20.2275 412.693 18.8461C411.897 17.4675 410.132 16.9941 408.755 17.7906Z" fill="#4D4D4D"/>
<path d="M410.356 16.9412L324.585 66.3833C324.585 66.3833 375.707 79.4533 389.907 94.2305C404.106 109.005 395.017 106.732 411.491 126.623C427.965 146.513 477.949 156.743 496.126 152.763C496.126 152.763 458.636 138.557 456.364 118.098C454.093 97.6394 451.253 41.3796 410.356 16.9412Z" fill="#C1272D"/>
<path d="M456.364 118.098C455.362 109.063 454.246 93.0497 449.792 75.8773C448.787 78.7932 447.559 81.6479 446.092 84.4384C442.838 94.4561 437.271 103.123 429.396 110.439C423.703 116.572 417.192 121.295 409.866 124.629C410.381 125.269 410.918 125.932 411.491 126.623C427.965 146.513 477.949 156.743 496.126 152.763C496.126 152.763 458.636 138.557 456.364 118.098Z" fill="#991721"/>
<path d="M397.91 347.983C397.91 347.983 429.646 362.276 433.922 372.736C433.922 372.736 443.746 381.005 448.684 374.978C453.625 368.954 452.205 360.006 450.017 354.458C447.827 348.908 425.624 332.774 425.624 332.774L422.228 332.003L425.117 329.58L410.216 319.899L393.311 331.348L397.91 347.983Z" fill="#64342F"/>
<path d="M394.731 354.567L400.356 346.59C401.155 345.46 401.526 344.087 401.412 342.708C401.217 340.377 400.807 336.815 400.05 335.353C399.301 333.913 397.993 332.847 396.432 332.407L396.356 332.384C394.469 331.852 392.445 332.295 390.953 333.565L382.477 340.775C380.267 342.655 379.76 345.866 381.28 348.337L384.927 354.26C387.14 357.853 392.301 358.015 394.731 354.567Z" fill="#F2F2F2"/>
<path d="M401.476 348.974C403.555 350.868 404.894 353.419 406.547 355.664C408.176 357.873 410.013 359.967 412.335 361.468C413.482 362.206 414.937 363.061 416.351 362.73C417.167 362.54 417.86 361.861 417.618 360.97C417.448 360.337 417.05 359.711 416.744 359.137C415.519 356.842 413.971 354.628 411.909 353.013C410.703 352.066 409.39 351.406 407.95 350.888C406.634 350.414 405.214 350.008 404.148 349.055C403.967 349.495 403.783 349.935 403.602 350.375C407.435 350.782 411.43 349.751 414.592 347.546C415.355 347.014 416.577 346.292 416.287 345.181C416.048 344.268 414.974 343.973 414.144 343.975C412.034 343.986 409.907 344.262 407.853 344.75C405.531 345.298 403.279 346.148 401.164 347.251C400.281 347.71 401.061 349.047 401.943 348.587C405.214 346.883 408.838 345.847 412.516 345.591C412.955 345.56 413.392 345.538 413.832 345.529C414.024 345.524 414.219 345.513 414.411 345.532C414.562 345.546 414.244 345.488 414.503 345.546C414.537 345.554 414.795 345.638 414.715 345.602C414.698 345.593 414.929 345.702 414.834 345.66C414.823 345.657 414.843 345.758 414.823 345.652C414.823 345.649 414.72 345.379 414.809 345.41L414.69 345.538C414.392 345.811 414.052 346.047 413.718 346.276C412.326 347.231 410.79 347.941 409.161 348.387C407.349 348.883 405.47 349.027 403.602 348.83C402.937 348.76 402.578 349.724 403.054 350.15C404.95 351.843 407.555 352.099 409.693 353.355C411.717 354.542 413.273 356.377 414.503 358.349C414.823 358.861 415.124 359.385 415.408 359.917C415.544 360.176 415.678 360.435 415.809 360.694C415.875 360.825 415.939 360.956 416.001 361.086L416.095 361.281C416.107 361.332 416.115 361.334 416.123 361.293C416.143 361.242 416.168 361.192 416.196 361.148C416.212 361.22 415.728 361.259 415.647 361.256C415.352 361.245 415.054 361.148 414.781 361.039C414.233 360.819 413.707 360.507 413.211 360.192C411.129 358.87 409.445 356.987 407.984 355.021C406.211 352.637 404.785 349.899 402.57 347.88C401.835 347.212 400.738 348.303 401.476 348.974Z" fill="#3F1D1B"/>
<path d="M209.346 411.289C209.346 411.289 190.266 440.409 179.27 442.996C179.27 442.996 169.569 451.409 174.743 457.233C179.917 463.056 188.972 463.056 194.793 461.761C200.614 460.466 220.018 441.055 220.018 441.055L221.312 437.819L223.252 441.055L235.143 427.846L226.486 409.348L209.346 411.289Z" fill="#64342F"/>
<path d="M203.342 407.114L210.336 413.923C211.327 414.887 212.625 415.472 214.004 415.572C216.337 415.745 219.917 415.898 221.478 415.38C223.016 414.865 224.275 413.74 224.954 412.266L224.988 412.194C225.809 410.414 225.689 408.342 224.669 406.668L218.877 397.166C217.367 394.687 214.277 393.682 211.6 394.799L205.18 397.475C201.287 399.099 200.32 404.173 203.342 407.114Z" fill="#F2F2F2"/>
<path d="M243.583 281.472C243.583 281.472 171.01 298.26 157.168 312.836C149.531 320.879 153.953 340.182 153.953 340.182L200.175 410.553C200.175 410.553 215.448 402.51 219.468 398.489L196.557 344.204C196.557 344.204 192.538 334.551 198.165 332.944C203.792 331.334 248.407 329.323 248.407 329.323C248.407 329.323 285.8 390.022 315.529 408.543C336.83 421.813 354.918 408.543 367.779 400.5C391.412 385.722 402.347 353.049 402.347 353.049L383.857 336.965L341.593 366.971C337.676 369.753 332.195 368.249 330.244 363.857L311.51 321.684C311.51 321.684 311.51 312.034 309.901 295.143C308.295 278.255 302.666 263.779 302.666 263.779L243.583 281.472Z" fill="#222A4E"/>
<path d="M189.878 367.821C185.237 370.26 180.368 371.864 175.272 372.639L200.175 410.554C200.175 410.554 215.449 402.51 219.468 398.489L203.521 360.702C199.409 363.821 194.864 366.197 189.878 367.821Z" fill="#101833"/>
<path d="M350.07 381.667C345.9 378.442 341.73 375.22 337.56 371.998C336.071 370.497 334.676 368.946 333.365 367.341C332.04 366.573 330.926 365.392 330.244 363.857L329.331 361.797C325.957 356.58 323.397 350.888 321.665 344.711L321.634 344.471L311.51 321.684C311.51 321.684 311.51 312.034 309.901 295.143C308.295 278.255 302.667 263.779 302.667 263.779L243.584 281.472C243.584 281.472 234.815 283.502 222.793 286.76C223.918 289.364 224.879 292.066 225.665 294.87C226.401 300.351 227.137 305.829 227.873 311.31C228.128 318.094 227.049 324.517 224.642 330.577C236.775 329.85 248.407 329.323 248.407 329.323C248.407 329.323 285.8 390.022 315.53 408.543C336.831 421.813 354.919 408.543 367.779 400.5C372.428 397.595 376.581 393.994 380.261 390.089C369.483 389.894 359.42 387.093 350.07 381.667Z" fill="#101833"/>
<path d="M197.513 148.56L192.028 160.887L202.678 165.63L208.162 153.303L197.513 148.56Z" fill="#EF9E78"/>
<path d="M251.622 170.487L188.304 206.719L206.438 164.85C206.438 164.85 194.349 156.478 190.629 158.803L164.589 217.419C164.589 217.419 164.589 231.843 175.284 231.843C185.979 231.843 241.574 204.263 241.574 204.263L251.622 170.487Z" fill="#CED0D8"/>
<path d="M205.4 197.025C207.008 211.501 192.299 223.062 188.463 228.052C199.486 223.243 250.541 200.682 250.541 200.682L255.191 169.047L205.4 197.025Z" fill="#C1C3C9"/>
<path d="M288.405 128.553C288.405 128.553 284.388 152.15 285.755 157.364C287.122 162.577 297.472 166.936 297.472 166.936C297.472 166.936 275.107 182.782 266.65 177.973C258.193 173.16 255.382 170.768 255.382 170.768C255.382 170.768 262.006 169.891 262.988 166.117C263.971 162.346 263.351 129.723 263.351 129.723L288.405 128.553Z" fill="#E08A68"/>
<path d="M247.392 112.648C247.392 112.648 243.337 127.288 242.813 132.652C242.289 138.016 250.028 149.563 252.173 151.897C254.318 154.233 258.628 154.863 258.628 154.863C258.628 154.863 274.354 150.735 277.465 147.875C280.575 145.012 288.94 131.004 288.94 131.004C288.94 131.004 299.429 112.742 297.745 106.537C296.06 100.332 289.772 86.3044 276.673 84.8562C263.575 83.408 259.233 83.5249 254.957 92.7683C253.074 96.84 247.392 112.648 247.392 112.648Z" fill="#EF9E78"/>
<path d="M254.434 98.7895L263.827 102.368C263.827 102.368 264.837 102.137 264.709 100.859C264.581 99.5805 258.446 96.322 256.797 96.6172C255.149 96.9097 254.101 98.0487 254.434 98.7895Z" fill="#330F1D"/>
<path d="M285.477 111.768L275.741 105.88C275.741 105.88 275.243 104.819 276.472 104.042C277.701 103.265 284.881 106.468 285.766 108.144C286.654 109.821 286.371 111.548 285.477 111.768Z" fill="#330F1D"/>
<path d="M259.24 115.391C258.59 117.098 257.075 118.106 255.856 117.641C254.636 117.179 254.175 115.416 254.825 113.709C255.475 112.002 256.99 110.993 258.209 111.458C259.428 111.921 259.89 113.684 259.24 115.391Z" fill="#2B203E"/>
<path d="M279.111 122.961C278.46 124.668 276.945 125.676 275.726 125.211C274.506 124.746 274.045 122.986 274.694 121.278C275.344 119.568 276.86 118.56 278.079 119.025C279.297 119.49 279.759 121.251 279.111 122.961Z" fill="#2B203E"/>
<path d="M259.136 130.021C258.043 129.38 256.776 128.503 256.692 127.411C256.625 126.55 257.29 125.751 258.724 124.966C261.217 123.601 263.59 112.815 264.293 108.771L265.21 108.985C265.204 109.022 264.556 112.717 263.526 116.58C262.123 121.838 260.694 124.896 259.279 125.67C258.132 126.297 257.573 126.896 257.616 127.45C257.658 127.99 258.284 128.597 259.585 129.36L259.136 130.021Z" fill="#F07A6E"/>
<path d="M252.516 133.062L269.022 138.843C269.022 138.843 270.62 139.957 266.793 142.041C262.968 144.124 254.031 139.707 254.031 139.707C254.031 139.707 250.729 136.426 252.516 133.062Z" fill="#C1272D"/>
<path d="M252.614 132.806L269.022 138.843C269.022 138.843 270.717 139.701 267.573 139.994C264.428 140.286 255.297 136.384 255.297 136.384C255.297 136.384 251.606 134.126 252.614 132.806Z" fill="white"/>
<path d="M292.356 128.004C292.356 128.004 288.172 124.386 290.463 119.696C292.754 115.004 295.022 103.73 294.201 101.9C293.38 100.071 266.153 93.239 258.856 87.1732L251.206 101.962L256.521 84.0067C256.521 84.0067 253.052 81.1688 257.824 77.9298C262.595 74.6881 269.595 68.2492 281.516 72.7915C293.439 77.331 307.947 84.3744 311.062 92.1362C314.174 99.8979 319.914 102.084 319.914 102.084L313.651 105.262C313.651 105.262 305.161 122.259 299.19 127.319L292.356 128.004Z" fill="#3D1623"/>
<path d="M311.062 92.1362C307.947 84.3744 293.439 77.3311 281.516 72.7915C269.595 68.2492 262.595 74.6881 257.824 77.9298C253.052 81.1688 256.521 84.0067 256.521 84.0067L256.474 84.1432C257.41 85.0929 258.17 86.1846 258.74 87.3682L258.856 87.1733C266.153 93.239 293.38 100.071 294.201 101.9C294.221 101.945 294.237 102.001 294.254 102.056C297.13 100.901 300.428 100.75 303.321 101.853C307.365 103.393 309.957 106.766 310.8 110.631C312.523 107.518 313.651 105.262 313.651 105.262L319.914 102.084C319.914 102.084 314.174 99.898 311.062 92.1362Z" fill="#330F1D"/>
<path d="M244.876 273.481C244.876 273.481 244.876 280.731 252.908 284.983C260.94 289.239 272.752 291.601 278.894 290.183C285.037 288.766 302.989 279.784 303.936 274.584L303.777 274.743L244.876 273.481Z" fill="#262728"/>
<path d="M286.003 289.754L283.239 290.386L281.235 281.633L283.996 280.998L286.003 289.754Z" fill="#222A4E"/>
<path d="M256.144 288.008L253.558 286.847L257.231 278.653L259.818 279.812L256.144 288.008Z" fill="#222A4E"/>
<path d="M295.81 285.825L293.252 287.047L289.38 278.946L291.938 277.72L295.81 285.825Z" fill="#222A4E"/>
<path d="M245.697 283.332L243.619 281.402L249.725 274.818L251.803 276.748L245.697 283.332Z" fill="#222A4E"/>
<path d="M294.591 124.79C292.681 124.063 291.097 122.924 289.867 121.523C289.224 125.294 292.355 128.004 292.355 128.004L299.189 127.319C299.83 126.776 300.5 126.094 301.188 125.308C298.986 125.729 296.681 125.587 294.591 124.79Z" fill="#330F1D"/>
<path d="M291.799 123.492C291.799 123.492 295.109 119.443 298.243 123.167C301.375 126.887 297.97 133.179 294.922 134.546C291.874 135.914 286.221 138.818 285.505 138.039C284.79 137.262 284.411 135.599 284.411 135.599L291.799 123.492Z" fill="#EF9E78"/>
<path d="M259.051 166.337L269.242 178.708L291.83 164.279L311.109 173.703C311.109 173.703 323.165 208.285 308.142 234.166C305.222 239.198 308.081 253.828 308.351 263.639C308.535 270.254 304.417 276.236 298.163 278.383C290.296 281.087 279.662 284.05 272.214 283.443C266.094 282.945 259.478 281.427 254.137 279.943C247.713 278.155 243.088 272.557 242.557 265.906C241.124 247.971 238.708 212.426 240.917 199.932C243.922 182.944 251.491 170.592 251.491 170.592L259.051 166.337Z" fill="#DADEEA"/>
<path d="M308.142 234.166C308.206 233.124 308.409 231.631 308.726 229.804C302.112 236.65 294.351 241.529 285.435 244.431C276.495 249.129 266.86 251.285 256.532 250.895C251.338 250.878 246.28 250.363 241.357 249.352C241.759 255.571 242.19 261.317 242.557 265.906C243.088 272.557 247.713 278.155 254.137 279.943C259.478 281.427 266.094 282.945 272.214 283.443C279.662 284.05 290.296 281.087 298.162 278.383C304.417 276.236 308.534 270.254 308.35 263.639C308.08 253.828 307.794 239.975 308.142 234.166Z" fill="#CED0D8"/>
<path d="M268.972 178.627L260.94 175.319L254.798 178.627L260.94 169.175L268.972 178.627Z" fill="#BABBBF"/>
<path d="M270.884 179.905L272.381 171.885L289.555 155.509L296.999 166.93L281.24 183.791L270.884 179.905Z" fill="#DADEEA"/>
<path d="M263.53 159.269L259.05 163.028C257.118 167.264 254.798 178.627 254.798 178.627L260.468 171.536L268.066 178.223C268.066 178.223 260.598 168.93 263.53 159.269Z" fill="#DADEEA"/>
<path d="M282.201 179.574L272.279 172.01L269.444 178.627L274.641 176.739L282.201 179.574Z" fill="#BABBBF"/>
<path d="M300.629 199.426H280.311V196.59H300.629V199.426Z" fill="#CED0D8"/>
<path d="M271.844 292.105L262.173 291.052C261.277 290.955 260.624 290.144 260.721 289.247L261.235 284.516C261.333 283.619 262.145 282.967 263.04 283.065L272.712 284.114C273.607 284.212 274.26 285.025 274.163 285.922L273.65 290.651C273.552 291.548 272.74 292.202 271.844 292.105Z" fill="#CED0D8"/>
<path d="M271.407 291.286L262.776 290.347C262.012 290.267 261.456 289.573 261.538 288.81L261.951 285.009C262.034 284.243 262.727 283.686 263.49 283.769L272.121 284.708C272.884 284.791 273.441 285.482 273.358 286.248L272.946 290.049C272.863 290.812 272.17 291.369 271.407 291.286Z" fill="#262728"/>
<path d="M434.61 262.823C434.61 262.823 423.915 254.942 420.995 254.596C418.865 254.346 416.496 264.494 416.552 264.427C416.61 264.363 415.55 267.424 417.153 267.636C417.251 267.647 418.05 268.271 418.153 268.276C420.652 268.424 421.515 259.478 422.54 259.665C425.207 260.147 431.854 265.973 433.516 266.193C434.546 266.33 434.61 262.823 434.61 262.823Z" fill="#64342F"/>
<path d="M397.737 258.337L401.099 269.323C401.099 269.323 402.319 277.815 406.427 280.179C410.539 282.547 411.021 279.876 411.021 279.876L419.767 287.54C419.767 287.54 424.708 287.543 423.878 284.961C423.049 282.38 429.705 273.367 427.739 268.552C425.774 263.737 412.61 259.002 412.61 259.002L409.025 254.624L397.737 258.337Z" fill="#EF9E78"/>
<path d="M306.43 171.386C306.43 171.386 361.756 187.829 371.574 194.549C381.392 201.269 412.488 257.056 412.488 257.056C412.488 257.056 402.662 265.408 397.373 261.403L354.852 210.059L312.315 205.873C312.315 205.873 299.886 188.901 306.43 171.386Z" fill="#DADEEA"/>
<path d="M417.599 324.609L436.809 246.194C436.809 246.194 438.91 243.089 439.96 244.008C441.009 244.927 486.219 275.899 486.219 275.899L474.661 360.399C474.661 360.399 468.621 368.709 468.184 367.091C467.747 365.47 417.685 325.92 417.685 325.92L417.599 324.609Z" fill="#64342F"/>
<path d="M474.661 360.399C474.661 360.399 468.62 368.709 468.183 367.091C467.919 366.111 432.652 338.283 418.208 326.218C416.844 325.079 418.386 322.971 419.887 323.926L474.661 360.399Z" fill="#471F1C"/>
<path d="M464.723 302.209C462.597 304.637 432.923 332.089 431.662 333.256L431.347 332.913C431.656 332.626 462.263 304.314 464.375 301.902C466.249 299.761 466.55 297.196 466.747 295.5C466.772 295.296 466.795 295.11 466.817 294.937C466.948 293.695 457.625 268.814 451.328 252.393L451.763 252.226C453.374 256.426 467.499 293.325 467.279 294.995C467.257 295.168 467.234 295.355 467.209 295.553C467.006 297.307 466.694 299.958 464.723 302.209Z" fill="#471F1C"/>
<path d="M462.936 293.837C464.239 294.979 464.37 296.965 463.228 298.268C462.087 299.574 460.102 299.702 458.8 298.56C457.497 297.418 457.366 295.433 458.507 294.129C459.649 292.826 461.633 292.695 462.936 293.837Z" fill="#F7931E"/>
<path d="M428.508 300.151C428.508 300.151 412.502 292.305 411.015 289.768C409.932 287.916 410.503 281.926 410.893 278.815C411.093 277.208 413.237 276.698 414.072 278.082C414.119 278.166 414.169 278.252 414.216 278.347C415.352 280.58 414.08 286.267 415.174 287.844C416.265 289.42 427.809 294.592 429.209 295.817C430.609 297.045 428.508 300.151 428.508 300.151Z" fill="#64342F"/>
<path d="M255.783 122.913C254.949 122.913 254.101 122.78 253.268 122.493C251.59 121.919 250.235 120.827 249.322 119.457L254.619 116.057C254.793 116.808 255.222 117.402 255.856 117.641C256.057 117.719 256.266 117.755 256.478 117.755C257.551 117.755 258.698 116.817 259.241 115.391C259.563 114.541 259.612 113.681 259.429 112.971L262.396 111.066C262.835 111.782 263.157 112.561 263.348 113.38C262.797 115.761 262.083 118.438 261.28 120.632C259.833 122.08 257.851 122.913 255.783 122.913Z" fill="#F4BBA0"/>
<path d="M256.478 117.755C256.266 117.755 256.057 117.719 255.856 117.641C255.222 117.402 254.793 116.808 254.619 116.057L259.429 112.971C259.612 113.681 259.563 114.541 259.24 115.391C258.698 116.817 257.551 117.755 256.478 117.755Z" fill="#6A6277"/>
<path d="M261.28 120.632C262.083 118.438 262.797 115.761 263.348 113.38C263.481 113.954 263.551 114.544 263.551 115.143C263.551 115.976 263.415 116.822 263.131 117.655C262.734 118.816 262.091 119.819 261.28 120.632Z" fill="#F4A199"/>
<path d="M248.488 117.814C248.283 117.251 248.141 116.666 248.068 116.068L259.84 108.515C260.359 108.829 260.831 109.205 261.252 109.623L258.319 111.503C258.283 111.486 258.247 111.472 258.209 111.458C258.008 111.381 257.799 111.344 257.587 111.344C256.514 111.344 255.367 112.283 254.825 113.709C254.818 113.725 254.812 113.742 254.806 113.759L248.488 117.814Z" fill="#F4BBA0"/>
<path d="M254.806 113.759C254.812 113.742 254.818 113.725 254.825 113.709C255.367 112.283 256.514 111.344 257.587 111.344C257.799 111.344 258.008 111.38 258.209 111.458C258.247 111.472 258.283 111.486 258.319 111.503L254.806 113.759Z" fill="#6A6277"/>
<path d="M248.36 112.848C248.383 112.776 248.408 112.701 248.433 112.625C249.536 109.398 252.552 107.367 255.781 107.367C256.118 107.367 256.457 107.39 256.797 107.434L248.36 112.848Z" fill="#F4BBA0"/>
<path d="M248.068 116.068C248.032 115.761 248.013 115.452 248.013 115.14C248.013 114.38 248.125 113.609 248.36 112.848L256.797 107.434C257.298 107.501 257.799 107.618 258.296 107.788C258.847 107.977 259.363 108.222 259.84 108.515L248.068 116.068Z" fill="#F6CBB7"/>
<path d="M249.322 119.457C248.98 118.942 248.7 118.39 248.488 117.814L254.806 113.759C254.511 114.564 254.46 115.377 254.619 116.056L249.322 119.457ZM259.429 112.971C259.255 112.297 258.873 111.759 258.32 111.503L261.252 109.623C261.692 110.058 262.075 110.545 262.396 111.066L259.429 112.971Z" fill="#F6CBB7"/>
<path d="M254.618 116.057C254.46 115.377 254.51 114.564 254.806 113.759L258.319 111.503C258.873 111.759 259.255 112.297 259.429 112.971L254.618 116.057Z" fill="#8D8897"/>
<path d="M274.154 129.202C273.32 129.202 272.473 129.065 271.64 128.781C269.961 128.207 268.607 127.113 267.694 125.743L274.708 121.242C274.703 121.253 274.699 121.264 274.694 121.278C274.045 122.986 274.506 124.746 275.726 125.211C275.927 125.286 276.136 125.322 276.347 125.322C277.421 125.322 278.568 124.386 279.111 122.961C279.751 121.276 279.311 119.541 278.131 119.048L280.767 117.354C281.513 118.566 281.922 119.978 281.922 121.429C281.922 122.264 281.786 123.111 281.502 123.944C280.4 127.171 277.383 129.202 274.154 129.202Z" fill="#F4BBA0"/>
<path d="M276.348 125.322C276.136 125.322 275.927 125.286 275.726 125.211C274.506 124.746 274.045 122.986 274.694 121.278C274.699 121.265 274.703 121.253 274.708 121.242L278.131 119.048C279.311 119.541 279.751 121.276 279.111 122.961C278.568 124.386 277.421 125.322 276.348 125.322Z" fill="#6A6277"/>
<path d="M266.86 124.1C266.654 123.54 266.512 122.955 266.44 122.353L278.212 114.8C278.729 115.118 279.203 115.491 279.623 115.909L266.86 124.1ZM266.732 119.137C266.755 119.062 266.779 118.986 266.805 118.914C267.908 115.686 270.924 113.656 274.152 113.656C274.49 113.656 274.829 113.678 275.169 113.723L266.732 119.137Z" fill="#F4BBA0"/>
<path d="M266.44 122.353C266.403 122.05 266.384 121.738 266.384 121.429C266.385 120.668 266.497 119.897 266.732 119.137L275.169 113.723C275.67 113.79 276.171 113.907 276.667 114.076C277.218 114.266 277.734 114.508 278.212 114.8L266.44 122.353Z" fill="#F6CBB7"/>
<path d="M267.694 125.743C267.352 125.23 267.072 124.679 266.86 124.1L279.623 115.909C280.063 116.346 280.447 116.834 280.767 117.354L278.131 119.048C278.113 119.039 278.096 119.034 278.079 119.025C277.878 118.95 277.669 118.914 277.457 118.914C276.392 118.914 275.256 119.836 274.708 121.242L267.694 125.743Z" fill="#F6CBB7"/>
<path d="M274.708 121.242C275.256 119.836 276.392 118.914 277.457 118.914C277.669 118.914 277.878 118.95 278.079 119.025C278.096 119.034 278.113 119.039 278.131 119.048L274.708 121.242Z" fill="#8D8897"/>
<path d="M263.157 117.711L262.426 117.46C261.921 118.933 260.985 120.128 259.804 120.961C258.622 121.791 257.198 122.253 255.728 122.253C254.968 122.253 254.196 122.131 253.435 121.869C251.963 121.365 250.769 120.429 249.938 119.245C249.107 118.065 248.644 116.639 248.645 115.168C248.645 114.408 248.768 113.636 249.028 112.876C249.532 111.403 250.468 110.208 251.65 109.375C252.831 108.545 254.256 108.083 255.726 108.083C256.486 108.083 257.257 108.206 258.018 108.465C259.491 108.972 260.685 109.907 261.516 111.088C262.346 112.272 262.809 113.698 262.809 115.168C262.809 115.928 262.686 116.7 262.426 117.46L263.157 117.711L263.889 117.961C264.205 117.037 264.356 116.096 264.355 115.168C264.355 113.372 263.792 111.64 262.781 110.2C261.771 108.76 260.308 107.615 258.519 107.003C257.595 106.685 256.653 106.535 255.726 106.535C253.931 106.535 252.199 107.1 250.761 108.111C249.323 109.122 248.176 110.584 247.565 112.375C247.249 113.299 247.098 114.241 247.098 115.168C247.098 116.964 247.662 118.697 248.673 120.137C249.683 121.576 251.146 122.721 252.935 123.334C253.858 123.648 254.801 123.802 255.728 123.802C257.522 123.802 259.255 123.236 260.693 122.225C262.131 121.214 263.277 119.752 263.889 117.961L263.157 117.711Z" fill="#42210B"/>
<path d="M266.054 120.71L262.625 119.535L263.798 116.104L267.227 117.279L266.054 120.71Z" fill="#42210B"/>
<path d="M282.424 121.248L285.853 122.42L285.099 124.626C285.099 124.626 282.644 124.607 281.405 125.826L282.424 121.248Z" fill="#42210B"/>
<path d="M249.6 110.013L246.905 109.091L246.151 111.297C246.151 111.297 247.632 112.625 247.706 114.294L249.6 110.013Z" fill="#42210B"/>
<path d="M285.853 122.42L292.292 122.799L291.242 124.267L285.099 124.626L285.853 122.42Z" fill="#8C6239"/>
<path d="M281.817 123.824L281.085 123.573C280.581 125.047 279.646 126.241 278.463 127.071C277.282 127.904 275.858 128.366 274.387 128.366C273.628 128.366 272.856 128.244 272.095 127.982C270.623 127.478 269.429 126.542 268.598 125.358C267.767 124.178 267.305 122.752 267.305 121.281C267.305 120.521 267.428 119.749 267.688 118.986C268.192 117.513 269.129 116.321 270.31 115.488C271.492 114.658 272.916 114.193 274.386 114.193C275.146 114.193 275.917 114.319 276.678 114.578C278.151 115.082 279.345 116.02 280.177 117.201C281.007 118.385 281.469 119.808 281.469 121.278C281.469 122.039 281.346 122.81 281.085 123.573L281.817 123.824L282.549 124.075C282.864 123.15 283.017 122.206 283.017 121.278C283.017 119.485 282.452 117.75 281.441 116.313C280.431 114.873 278.969 113.726 277.179 113.116C276.256 112.798 275.313 112.648 274.386 112.648C272.591 112.648 270.859 113.21 269.421 114.221C267.982 115.232 266.836 116.697 266.225 118.488C265.909 119.41 265.758 120.354 265.758 121.281C265.758 123.078 266.322 124.81 267.332 126.25C268.343 127.687 269.806 128.834 271.595 129.447C272.518 129.762 273.461 129.912 274.387 129.912C276.182 129.912 277.915 129.349 279.353 128.338C280.792 127.327 281.937 125.863 282.549 124.075L281.817 123.824Z" fill="#42210B"/>
<path d="M197.362 149.24L196.156 136.774C196.156 136.774 196.156 131.948 197.763 131.547C199.371 131.143 215.047 119.482 217.458 121.089C219.87 122.699 223.487 130.341 223.487 130.341C223.487 130.341 226.301 129.937 225.899 133.557C225.497 137.175 220.674 139.186 220.674 139.186L219.468 146.424L211.027 150.847L208.214 154.063L197.362 149.24Z" fill="#EF9E78"/>
<path d="M207.716 414.734C206.576 415.647 205.247 416.307 203.932 416.926C202.673 417.522 201.406 418.093 200.172 418.739C197.816 419.97 195.511 421.454 193.742 423.468C192.818 424.52 191.699 425.874 191.926 427.375C192.058 428.249 192.698 428.873 193.618 428.701C194.26 428.578 194.902 428.322 195.517 428.102C198.004 427.222 200.429 426.013 202.358 424.181C203.434 423.158 204.253 421.953 204.96 420.655C205.639 419.41 206.28 418.118 207.401 417.204C206.97 416.953 206.54 416.703 206.109 416.452C205.087 420.259 205.492 424.373 207.202 427.921C207.581 428.706 208.057 429.881 209.09 429.89C210.038 429.898 210.588 428.926 210.73 428.102C211.091 426.01 211.143 423.832 210.986 421.716C210.809 419.326 210.343 416.965 209.584 414.692C209.451 414.297 209.051 414.038 208.633 414.152C208.246 414.258 207.96 414.706 208.093 415.104C209.275 418.641 209.732 422.384 209.42 426.102C209.385 426.531 209.341 426.96 209.283 427.386C209.24 427.704 209.204 428.041 209.046 428.288C209.033 428.308 208.986 428.408 208.954 428.4C208.97 428.403 209.026 428.341 209.062 428.347C209.315 428.392 209.234 428.408 209.136 428.258C208.907 427.907 208.72 427.517 208.538 427.141C207.837 425.687 207.375 424.08 207.194 422.476C206.981 420.593 207.109 418.694 207.6 416.864C207.689 416.533 207.541 416.163 207.245 415.99C206.928 415.803 206.577 415.892 206.307 416.11C204.396 417.669 203.777 420.173 202.249 422.031C200.726 423.883 198.644 425.166 196.455 426.091C195.927 426.314 195.389 426.514 194.847 426.701C194.571 426.796 194.295 426.888 194.016 426.974C193.878 427.018 193.739 427.06 193.601 427.102C193.533 427.122 193.447 427.13 193.386 427.166C193.355 427.174 193.324 427.183 193.293 427.191C193.35 427.219 193.408 427.244 193.465 427.269L193.487 427.294L193.435 427.066C193.426 426.966 193.439 426.863 193.457 426.765C193.513 426.464 193.652 426.191 193.807 425.932C194.118 425.409 194.505 424.93 194.909 424.479C196.55 422.638 198.639 421.295 200.802 420.153C203.483 418.739 206.421 417.739 208.809 415.828C209.135 415.567 209.082 415.007 208.809 414.734C208.487 414.411 208.043 414.472 207.716 414.734Z" fill="#3F1D1B"/>
<path d="M260.94 174.146L271.264 171.007L276.635 176.182L270.08 183.247C270.08 183.247 300.075 201.016 320.991 187.987C341.908 174.956 352.563 176.931 352.563 176.931L363.615 184.038L357.694 195.883C357.694 195.883 345.064 191.934 337.568 194.699C330.069 197.462 315.07 206.148 303.231 205.36C291.392 204.569 267.712 194.304 264.16 186.408L260.94 174.146Z" fill="#C1272D"/>
<path d="M352.564 176.931C352.564 176.931 341.908 174.957 320.991 187.988C319.861 188.689 318.706 189.299 317.528 189.831C319.764 193.321 321.679 197 323.274 200.865C328.947 198.562 334.072 195.986 337.568 194.699C345.064 191.934 357.694 195.883 357.694 195.883L363.615 184.038L352.564 176.931Z" fill="#991721"/>
<path d="M206.971 135.373L123.566 183.548C122.564 185.517 122.136 187.116 122.858 188.366C123.579 189.617 125.178 190.046 126.429 189.324L209.834 141.147C211.084 140.425 211.513 138.824 210.791 137.573C210.069 136.323 208.47 135.894 206.971 135.373Z" fill="#4D4D4D"/>
<path d="M409.98 519.517C409.98 529.108 363.225 536.887 305.55 536.887C247.875 536.887 201.121 529.108 201.121 519.517C201.121 509.922 247.875 502.144 305.55 502.144C363.225 502.144 409.98 509.922 409.98 519.517Z" fill="#CED0D8"/>
<path d="M416.109 472.511C416.109 472.511 399.257 423.465 428.363 423.465C428.363 423.465 436.024 403.541 457.472 405.073C478.92 406.604 475.855 437.259 480.451 440.325C485.047 443.391 500.368 474.046 481.985 478.644C463.599 483.242 425.301 515.428 416.109 472.511Z" fill="#CED0D8"/>
<path d="M538.173 424.442C538.173 424.442 527.971 394.749 545.592 394.749C545.592 394.749 550.23 382.684 563.215 383.611C576.201 384.539 574.347 403.098 577.128 404.956C579.912 406.811 589.187 425.37 578.055 428.155C566.926 430.937 543.738 450.424 538.173 424.442Z" fill="#CED0D8"/>
<path d="M533.656 492.605C533.656 492.605 527.111 473.556 538.416 473.556C538.416 473.556 541.391 465.819 549.72 466.415C558.052 467.008 556.86 478.914 558.647 480.106C560.432 481.295 566.38 493.201 559.24 494.986C552.1 496.772 537.227 509.274 533.656 492.605Z" fill="#CED0D8"/>
<path d="M166.906 220.126C166.906 220.126 246.569 321.796 321.637 318.729C396.704 315.666 500.878 257.42 552.966 232.898C605.054 208.374 644.886 229.832 644.886 229.832L620.373 239.028L634.16 262.018C634.16 262.018 595.862 245.161 569.818 248.224C543.774 251.291 434.796 303.239 410.389 312.516C385.979 321.796 352.224 334.927 313.976 330.992C259.336 325.372 208.269 279.391 197.546 271.727C186.822 264.063 153.118 223.19 153.118 223.19C153.118 223.19 120.946 189.982 93.3708 194.58C65.7952 199.178 50.4752 208.374 50.4752 208.374L59.6672 189.982L45.8794 174.656C45.8794 174.656 101.031 169.545 119.415 177.21C137.798 184.874 151.586 206.33 166.906 220.126Z" fill="#22B573"/>
<path d="M644.886 229.832C644.886 229.832 605.054 208.374 552.966 232.898C506.34 254.85 417.983 303.813 346.123 316.042C346.671 316.571 347.217 317.103 347.751 317.649C351.153 321.116 354.312 324.954 357.344 328.867C377.695 325.046 395.728 318.089 410.389 312.516C434.796 303.239 543.774 251.291 569.818 248.224C595.863 245.161 634.16 262.018 634.16 262.018L620.373 239.028L644.886 229.832Z" fill="#147F4C"/>
<path d="M180.652 81.0045L160.309 92.7545L157.245 87.4463L177.588 75.6936L180.652 81.0045Z" fill="#FFFF00"/>
<path d="M159.125 121.178L155.196 144.349L149.155 143.322L153.083 120.151L159.125 121.178Z" fill="#FF00FF"/>
<path d="M396.582 89.5015L392.654 112.673L386.611 111.645L390.541 88.4767L396.582 89.5015Z" fill="#FF00FF"/>
<path d="M526.88 144.867L506.537 156.617L503.472 151.309L523.815 139.559L526.88 144.867Z" fill="#FF00FF"/>
<path d="M220.484 23.7839L200.141 35.5338L197.077 30.2228L217.42 18.4729L220.484 23.7839Z" fill="#FF00FF"/>
<path d="M164.731 59.0448L147.659 61.2004L147.097 56.7444L164.169 54.5916L164.731 59.0448Z" fill="#FF0000"/>
<path d="M482.497 176.959L472.292 190.817L468.676 188.155L478.884 174.294L482.497 176.959Z" fill="#FF0000"/>
<path d="M435.712 159.076L445.026 180.652L439.401 183.08L430.086 161.508L435.712 159.076Z" fill="#FFFF00"/>
<path d="M368.133 137.782L359.478 159.631L353.78 157.372L362.437 135.524L368.133 137.782Z" fill="#00FFFF"/>
<path d="M305.823 42.7275L313.244 51.8373L310.867 53.7728L303.448 44.663L305.823 42.7275Z" fill="#00FFFF"/>
<path d="M222.057 63.7877L217.73 74.7132L214.882 73.5825L219.209 62.6598L222.057 63.7877Z" fill="#FFFF00"/>
<path d="M99.5253 95.8876L90.8706 117.736L85.1738 115.477L93.8283 93.6289L99.5253 95.8876Z" fill="#FFFF00"/>
</svg>
