<svg width="47" height="47" viewBox="0 0 47 47" fill="none" xmlns="http://www.w3.org/2000/svg">
<path d="M23.5 2.61133C19.3685 2.61133 15.3299 3.83644 11.8947 6.13174C8.45958 8.42704 5.7822 11.6894 4.20117 15.5064C2.62013 19.3233 2.20647 23.5234 3.01247 27.5754C3.81847 31.6275 5.80794 35.3495 8.72931 38.2709C11.6507 41.1923 15.3727 43.1817 19.4248 43.9877C23.4768 44.7937 27.6769 44.3801 31.4938 42.799C35.3108 41.218 38.5732 38.5406 40.8685 35.1055C43.1638 31.6703 44.3889 27.6316 44.3889 23.5002C44.3889 17.9601 42.1881 12.647 38.2707 8.72954C34.3532 4.81212 29.0401 2.61133 23.5 2.61133V2.61133ZM23.5 41.778C19.885 41.778 16.3512 40.706 13.3454 38.6976C10.3396 36.6892 7.99692 33.8346 6.61352 30.4948C5.23012 27.155 4.86815 23.4799 5.57341 19.9344C6.27866 16.3889 8.01945 13.1321 10.5756 10.5759C13.1318 8.01968 16.3886 6.27889 19.9342 5.57364C23.4797 4.86839 27.1548 5.23035 30.4946 6.61375C33.8344 7.99715 36.689 10.3399 38.6974 13.3456C40.7058 16.3514 41.7778 19.8852 41.7778 23.5002C41.7778 28.3478 39.8521 32.9968 36.4243 36.4246C32.9966 39.8523 28.3475 41.778 23.5 41.778Z" fill="black"/>
<path d="M23.8785 11.6454C22.4637 11.622 21.0612 11.9105 19.7705 12.4904C18.4798 13.0703 17.3327 13.9273 16.4107 15.0006C16.2826 15.1193 16.1796 15.2625 16.1079 15.4218C16.0361 15.581 15.997 15.753 15.9929 15.9276C15.9928 16.0887 16.0252 16.2481 16.0879 16.3965C16.1507 16.5448 16.2427 16.679 16.3585 16.791C16.4742 16.9031 16.6112 16.9907 16.7615 17.0488C16.9118 17.1068 17.0722 17.1339 17.2332 17.1287C17.5781 17.1201 17.9079 16.9854 18.1601 16.7501C18.8579 15.9324 19.7246 15.2756 20.7004 14.8248C21.6763 14.3741 22.7383 14.1401 23.8132 14.139C26.8943 14.139 28.8135 16.1234 28.8135 18.5909V18.6562C28.8135 21.5415 26.5157 23.1473 22.8863 23.4215C22.7393 23.4271 22.5952 23.4638 22.4634 23.529C22.3315 23.5942 22.215 23.6866 22.1213 23.8C22.0276 23.9133 21.959 24.0452 21.9198 24.187C21.8806 24.3288 21.8719 24.4772 21.894 24.6226V28.2129C21.9265 28.536 22.0783 28.8355 22.3197 29.0527C22.5611 29.27 22.8748 29.3895 23.1996 29.3879H23.3432C23.6664 29.3554 23.9658 29.2036 24.1831 28.9622C24.4003 28.7208 24.5198 28.4071 24.5182 28.0823V25.3929C28.4349 24.8445 31.6074 22.7817 31.6074 18.4995V18.4342C31.5682 14.5176 28.5132 11.6454 23.8785 11.6454V11.6454Z" fill="black"/>
<path d="M23.213 35.8376C24.1143 35.8376 24.8449 35.107 24.8449 34.2057C24.8449 33.3044 24.1143 32.5737 23.213 32.5737C22.3117 32.5737 21.5811 33.3044 21.5811 34.2057C21.5811 35.107 22.3117 35.8376 23.213 35.8376Z" fill="black"/>
</svg>
