<svg width="592" height="579" viewBox="0 0 592 579" fill="none" xmlns="http://www.w3.org/2000/svg">
<g clip-path="url(#clip0)">
<path d="M242.345 91.004C243.672 81.372 230.079 73.4494 219.865 72.6254C214.993 72.2334 209.935 72.9774 205.32 71.3694C195.321 67.8841 191.328 54.9681 181.572 50.8534C174.28 47.7774 165.883 50.516 158.812 54.0747C151.741 57.632 144.755 62.1107 136.855 62.6174C129.984 63.056 122.522 60.5081 116.51 63.8654C112.031 66.3667 109.684 71.528 105.555 74.5734C101.516 77.552 96.2464 78.1841 91.2349 78.4561C86.2229 78.7294 81.0344 78.7801 76.4703 80.8694C71.9068 82.9587 68.1312 87.784 69.0787 92.7134L242.345 91.004Z" fill="#EEEEEE"/>
<path d="M113.378 163.46C113.208 163.549 109.341 156.504 104.743 147.725C100.143 138.944 96.5537 131.756 96.7236 131.667C96.8928 131.577 100.759 138.623 105.358 147.404C109.957 156.183 113.548 163.372 113.378 163.46Z" fill="#EEEEEE"/>
<path d="M180.577 187.035C180.408 187.124 176.541 180.077 171.944 171.299C167.343 162.517 163.753 155.329 163.924 155.24C164.093 155.152 167.959 162.196 172.559 170.977C177.157 179.756 180.748 186.945 180.577 187.035Z" fill="#EEEEEE"/>
<path d="M247.779 210.608C247.608 210.697 243.741 203.651 239.144 194.873C234.543 186.092 230.953 178.904 231.123 178.815C231.293 178.725 235.159 185.769 239.759 194.551C244.357 203.329 247.948 210.519 247.779 210.608Z" fill="#EEEEEE"/>
<path d="M314.977 234.181C314.808 234.271 310.943 227.224 306.343 218.447C301.743 209.665 298.153 202.477 298.323 202.388C298.493 202.299 302.359 209.343 306.959 218.124C311.557 226.903 315.148 234.092 314.977 234.181Z" fill="#EEEEEE"/>
<path d="M382.177 257.755C382.009 257.844 378.141 250.797 373.544 242.02C368.944 233.239 365.353 226.051 365.523 225.961C365.693 225.872 369.559 232.916 374.159 241.697C378.757 250.476 382.347 257.665 382.177 257.755Z" fill="#EEEEEE"/>
<path d="M449.379 281.328C449.208 281.417 445.343 274.372 440.743 265.593C436.144 256.812 432.553 249.624 432.724 249.535C432.893 249.445 436.759 256.489 441.359 265.271C445.956 274.049 449.548 281.239 449.379 281.328Z" fill="#EEEEEE"/>
<path d="M398.123 208.327C397.953 208.416 394.087 201.371 389.489 192.592C384.889 183.811 381.299 176.623 381.468 176.533C381.639 176.444 385.504 183.488 390.104 192.269C394.701 201.048 398.292 208.239 398.123 208.327Z" fill="#EEEEEE"/>
<path d="M260.032 299.303C259.861 299.392 255.996 292.347 251.397 283.568C246.797 274.787 243.207 267.599 243.377 267.509C243.547 267.42 247.412 274.464 252.012 283.245C256.611 292.023 260.201 299.213 260.032 299.303Z" fill="#EEEEEE"/>
<path d="M172.181 256.273C172.012 256.363 168.145 249.317 163.547 240.539C158.948 231.757 155.357 224.569 155.527 224.48C155.697 224.391 159.563 231.435 164.163 240.216C168.76 248.995 172.352 256.184 172.181 256.273Z" fill="#EEEEEE"/>
<path d="M324.939 174.255C324.768 174.344 320.901 167.299 316.304 158.52C311.704 149.739 308.114 142.551 308.284 142.461C308.453 142.372 312.318 149.416 316.918 158.197C321.517 166.976 325.108 174.165 324.939 174.255Z" fill="#EEEEEE"/>
<path d="M406.451 146.081C406.281 146.169 402.413 139.124 397.816 130.347C393.216 121.565 389.625 114.376 389.795 114.288C389.965 114.199 393.832 121.243 398.431 130.024C403.029 138.801 406.621 145.992 406.451 146.081Z" fill="#EEEEEE"/>
<path d="M474.575 140.549C474.405 140.639 470.54 133.593 465.941 124.815C461.341 116.033 457.75 108.845 457.92 108.756C458.09 108.667 461.956 115.711 466.556 124.492C471.154 133.271 474.745 140.46 474.575 140.549Z" fill="#EEEEEE"/>
<path d="M409.875 76.8468C409.704 76.9361 405.839 69.8908 401.239 61.1121C396.64 52.3308 393.049 45.1428 393.22 45.0534C393.389 44.9654 397.255 52.0094 401.855 60.7908C406.453 69.5681 410.044 76.7588 409.875 76.8468Z" fill="#EEEEEE"/>
<path d="M251.753 140.183C251.584 140.272 247.717 133.227 243.12 124.448C238.519 115.667 234.929 108.479 235.099 108.389C235.268 108.301 239.135 115.345 243.733 124.127C248.332 132.904 251.924 140.095 251.753 140.183Z" fill="#EEEEEE"/>
<path d="M293.203 87.1041C293.032 87.1934 289.167 80.1481 284.568 71.3694C279.968 62.5881 276.377 55.4001 276.548 55.3108C276.717 55.2228 280.583 62.2668 285.183 71.0481C289.781 79.8254 293.372 87.0161 293.203 87.1041Z" fill="#EEEEEE"/>
<path d="M180.577 124.287C180.408 124.375 176.541 117.329 171.944 108.551C167.343 99.7694 163.753 92.5815 163.924 92.4921C164.093 92.4028 167.959 99.4481 172.559 108.229C177.157 117.007 180.748 124.197 180.577 124.287Z" fill="#EEEEEE"/>
<path d="M457.145 47.5601C458.665 36.5188 443.083 27.4361 431.375 26.4934C425.791 26.0427 419.992 26.8961 414.701 25.0521C403.24 21.0588 398.663 6.25209 387.48 1.53609C379.12 -1.99057 369.495 1.14809 361.391 5.22808C353.285 9.30675 345.275 14.4401 336.22 15.0201C328.343 15.5241 319.789 12.6027 312.899 16.4507C307.764 19.3174 305.073 25.2348 300.341 28.7254C295.711 32.1414 289.671 32.8641 283.925 33.1774C278.18 33.4894 272.232 33.5467 267.001 35.9427C261.769 38.3374 257.441 43.8694 258.527 49.5201L457.145 47.5601Z" fill="#F8F8F9"/>
<path d="M411.917 116.348C412.826 109.741 403.504 104.307 396.497 103.743C393.156 103.473 389.685 103.984 386.52 102.88C379.664 100.491 376.924 91.6321 370.232 88.8094C365.231 86.6987 359.47 88.5774 354.621 91.0174C349.77 93.4588 344.979 96.5307 339.56 96.8774C334.847 97.1801 329.729 95.4321 325.605 97.7334C322.533 99.4494 320.924 102.989 318.09 105.079C315.32 107.123 311.707 107.555 308.269 107.741C304.831 107.929 301.272 107.964 298.141 109.397C295.011 110.831 292.421 114.14 293.071 117.521L411.917 116.348Z" fill="#FCFDFD"/>
<path d="M113.783 553.846C125.353 571.544 149.919 579.416 169.62 571.739C178.919 568.116 186.839 561.596 196.024 557.696C208.623 552.348 222.911 552.252 236.403 554.558C249.893 556.861 262.872 561.44 276.025 565.223C305.447 573.684 335.999 578.204 366.609 578.625C385.679 578.887 405.147 577.48 422.832 570.341C440.516 563.203 456.34 549.608 462.46 531.547C462.46 531.547 103.139 529.54 101.134 531.547C99.1285 533.552 96.854 535.825 96.854 535.825L113.783 553.846Z" fill="#EEEEEE"/>
<path d="M117.141 503.675C144.875 490.58 155.972 459.398 159.912 430.339C160.571 425.488 161.966 420.495 160.393 415.872C158.817 411.251 153.958 407.447 149.295 408.743C145.426 409.819 143.156 413.72 140.565 416.824C137.12 420.955 132.501 424.071 127.415 425.7C124.072 426.771 120.107 427.097 117.36 424.909C113.592 421.905 114.08 416.075 114.926 411.284C116.505 402.352 118.083 393.421 119.661 384.493C120.509 379.703 121.357 374.807 120.641 370.001C119.924 365.193 117.348 360.404 113.003 358.349C108.657 356.293 102.567 357.963 100.803 362.495C100.07 364.379 100.123 366.475 99.6498 368.444C99.178 370.412 97.8753 372.457 95.8894 372.689C93.879 372.925 92.1916 371.239 90.9968 369.591C86.8706 363.904 84.5744 357.093 82.491 350.355C80.4082 343.616 78.4425 336.744 74.8504 330.697C71.2577 324.649 65.7572 319.405 58.9545 317.847C52.1504 316.288 44.1102 319.281 41.2253 325.729C38.3326 332.195 41.1097 339.728 44.4701 345.932C49.4561 355.137 55.767 363.604 63.143 370.977C64.4722 372.308 65.9134 373.747 66.1889 375.623C66.6862 378.999 63.1154 381.657 59.7796 382.172C56.0014 382.753 52.1853 381.721 48.3706 381.524C44.5556 381.328 40.2228 382.288 38.2061 385.58C35.4066 390.149 38.631 395.985 42.092 400.039C49.0222 408.155 57.3405 415.051 66.5676 420.332C69.8764 422.224 73.3968 423.988 75.8196 426.952C78.243 429.916 79.2253 434.519 76.9316 437.604C74.6348 440.693 70.0389 441.023 66.4597 439.708C62.8816 438.395 59.9149 435.824 56.6192 433.896C50.4514 430.285 41.8613 429.289 36.6686 434.267C33.2566 437.539 32.1238 442.711 32.767 447.413C33.4092 452.117 35.6014 456.447 38.0196 460.506C46.4733 474.7 58.2982 486.983 72.6868 494.889C87.0738 502.795 100.998 506.644 117.141 503.675Z" fill="#F8F8F9"/>
<path d="M112.768 484.294C110.999 468.988 107.668 452.372 103.588 435.115C102.553 430.803 101.529 426.544 100.52 422.347C99.5036 418.159 98.4959 414.005 97.2588 410.004C94.8188 401.988 91.862 394.468 88.8328 387.417C85.8057 380.363 82.6755 373.78 79.7047 367.645C76.7183 361.515 73.8276 355.851 70.9729 350.804C65.2937 340.683 59.7563 333.075 55.7421 328.009C53.7407 325.467 52.1235 323.547 51.0093 322.26C50.4713 321.648 50.0511 321.167 49.7333 320.804C49.4421 320.481 49.2875 320.32 49.2755 320.331C49.2631 320.34 49.3948 320.521 49.6636 320.865C49.9636 321.241 50.364 321.741 50.8713 322.377C51.9391 323.701 53.512 325.656 55.4697 328.227C59.3927 333.353 64.8297 340.989 70.4219 351.121C73.2339 356.175 76.0855 361.84 79.0364 367.976C81.9771 374.123 85.0776 380.707 88.0776 387.752C91.0787 394.795 94.0063 402.293 96.4203 410.268C97.6448 414.248 98.6396 418.367 99.6557 422.565C100.663 426.76 101.684 431.017 102.718 435.327C106.795 452.572 110.141 469.141 111.951 484.396L112.768 484.294Z" fill="#E3E3E2"/>
<path d="M97.012 409.927C97.0697 409.947 97.3573 409.244 97.8292 407.96C98.3068 406.677 98.9364 404.8 99.6797 402.468C101.171 397.808 103.012 391.301 105.014 384.123C107.016 376.937 108.944 370.476 110.502 365.851C111.275 363.537 111.919 361.669 112.38 360.385C112.835 359.097 113.061 358.372 113.004 358.349C112.946 358.325 112.613 359.004 112.057 360.256C111.495 361.504 110.758 363.344 109.908 365.639C108.19 370.227 106.158 376.685 104.154 383.877C102.197 390.967 100.427 397.383 99.0745 402.284C98.45 404.495 97.9213 406.356 97.4973 407.851C97.1297 409.168 96.9527 409.905 97.012 409.927Z" fill="#E3E3E2"/>
<path d="M37.3068 387.899C37.2953 387.959 38.1546 388.209 39.7161 388.612C41.275 389.021 43.5328 389.603 46.2989 390.411C51.8432 391.983 59.426 394.421 67.674 397.479C75.9193 400.553 83.2625 403.651 88.5093 406.045C91.1426 407.224 93.2469 408.236 94.7062 408.925C96.1625 409.623 96.9817 409.98 97.012 409.927C97.0412 409.869 96.275 409.405 94.8639 408.611C93.451 407.824 91.3827 406.723 88.7775 405.463C83.5849 402.913 76.2546 399.712 67.9854 396.628C59.7125 393.564 52.0697 391.211 46.465 389.793C43.6688 389.063 41.3802 388.572 39.7926 388.268C38.203 387.971 37.3202 387.836 37.3068 387.899Z" fill="#E3E3E2"/>
<path d="M112.203 483.028C112.229 483.047 112.417 482.812 112.754 482.348C113.142 481.793 113.614 481.117 114.188 480.298C115.426 478.512 117.15 475.879 119.236 472.599C123.415 466.04 128.902 456.8 134.819 446.522C140.739 436.24 146.132 426.96 150.168 420.327C152.14 417.103 153.764 414.451 154.971 412.48C155.488 411.624 155.915 410.917 156.265 410.337C156.552 409.843 156.692 409.573 156.667 409.556C156.64 409.54 156.452 409.773 156.115 410.237C155.727 410.792 155.255 411.467 154.68 412.288C153.443 414.073 151.719 416.707 149.632 419.987C145.453 426.544 139.967 435.785 134.048 446.068C128.13 456.347 122.736 465.624 118.7 472.26C116.726 475.483 115.104 478.135 113.898 480.105C113.38 480.96 112.953 481.669 112.604 482.248C112.315 482.743 112.176 483.012 112.203 483.028Z" fill="#E3E3E2"/>
<path d="M34.7541 442.661C34.7412 442.689 35.0021 442.851 35.5099 443.133C36.114 443.459 36.8563 443.855 37.7541 444.337C39.8307 445.424 42.6344 446.892 46.0453 448.676C53.0453 452.341 62.6552 457.515 73.2656 463.243C83.8797 468.976 93.5478 474.067 100.625 477.585C104.164 479.348 107.041 480.744 109.049 481.668C109.978 482.089 110.744 482.436 111.367 482.719C111.901 482.951 112.19 483.058 112.203 483.028C112.216 483.001 111.955 482.839 111.447 482.553C110.844 482.232 110.103 481.835 109.203 481.352C107.126 480.265 104.323 478.799 100.913 477.015C93.9125 473.349 84.3016 468.177 73.6875 462.446C63.0765 456.713 53.4109 451.625 46.3328 448.104C42.7948 446.343 39.9177 444.947 37.9079 444.021C36.9787 443.601 36.214 443.252 35.5896 442.971C35.0547 442.739 34.7683 442.632 34.7541 442.661Z" fill="#E3E3E2"/>
<path d="M583.129 529.372C583.129 529.564 452.581 529.72 291.579 529.72C130.52 529.72 0.000488281 529.564 0.000488281 529.372C0.000488281 529.18 130.52 529.024 291.579 529.024C452.581 529.024 583.129 529.18 583.129 529.372Z" fill="#1D2A30"/>
<path d="M110.362 443.581L83.4723 485.375C83.4723 485.375 31.9609 472.079 26.239 479.319L105.4 534.367L149.972 470.967L110.362 443.581Z" fill="#F03658"/>
<path d="M105.4 534.367L26.239 479.319C27.4639 477.769 30.7833 477.16 35.2494 477.16C51.6494 477.16 83.4724 485.375 83.4724 485.375L95.5354 466.625L113.517 478.952C112.146 481.552 110.888 483.929 109.871 485.848C109.122 487.229 108.519 488.341 108.069 489.172C107.835 489.619 107.648 489.975 107.503 490.252C107.379 490.498 107.32 490.627 107.331 490.631C108.297 491.775 116.434 498.132 125.817 505.327L109.103 529.101L108.722 529.643L105.4 534.367Z" fill="#BC283B"/>
<path d="M110.335 498.967C111.576 500.452 111.437 502.91 110.005 504.211C108.573 505.512 106.072 505.392 104.805 503.929C103.538 502.467 103.615 499.511 105.184 498.379C106.752 497.246 109.682 497.548 110.561 499.271" fill="#E3E3E2"/>
<path d="M105.4 534.367L109.831 528.067L32.1578 477.476C32.1578 477.476 27.5671 476.56 26.239 479.319L105.4 534.367Z" fill="#E3E3E2"/>
<path d="M82.4697 484.08C82.213 484.476 84.0245 485.996 85.062 488.561C86.1672 491.1 85.9828 493.456 86.4448 493.549C86.853 493.723 87.8844 491.011 86.5734 487.927C85.2901 484.832 82.6322 483.668 82.4697 484.08Z" fill="#1D2A30"/>
<path d="M71.7781 481.74C71.4292 482.053 72.6469 483.875 72.8218 486.423C73.0734 488.965 72.1745 490.963 72.5718 491.215C72.8926 491.528 74.7349 489.451 74.4552 486.287C74.2041 483.122 72.0432 481.377 71.7781 481.74Z" fill="#1D2A30"/>
<path d="M60.152 488.399C60.4463 488.725 62.3269 487.168 62.8061 484.36C63.3061 481.556 62.0639 479.455 61.6764 479.663C61.2368 479.828 61.6212 481.78 61.192 484.079C60.8171 486.387 59.7947 488.094 60.152 488.399Z" fill="#1D2A30"/>
<path d="M89.6547 475.236C89.5714 475.7 91.7151 476.401 93.7979 478.07C95.9131 479.694 97.1031 481.61 97.5355 481.417C97.9527 481.295 97.288 478.71 94.8088 476.78C92.3448 474.831 89.6755 474.8 89.6547 475.236Z" fill="#1D2A30"/>
<path d="M95.2353 466.906C95.1192 467.061 96.4811 468.361 99.2135 469.641C100.575 470.276 102.283 470.873 104.247 471.251C105.23 471.439 106.275 471.572 107.364 471.627C107.893 471.646 108.489 471.71 109.21 471.527C109.918 471.422 110.875 470.565 110.817 469.594C110.834 468.703 110.3 467.943 109.738 467.531C109.168 467.106 108.613 466.896 108.108 466.703C107.077 466.303 106.048 466.022 105.056 465.835C103.064 465.471 101.231 465.487 99.7305 465.691C96.7119 466.116 95.0801 467.124 95.1608 467.291C95.2468 467.54 96.9827 466.951 99.8275 466.848C101.245 466.796 102.938 466.903 104.749 467.313C105.653 467.524 106.584 467.811 107.513 468.194C108.505 468.558 109.223 469.048 109.179 469.571C109.157 469.767 109.129 469.831 108.782 469.953C108.444 470.053 107.949 470.039 107.429 470.022C106.411 469.992 105.431 469.899 104.502 469.763C102.645 469.488 100.999 469.036 99.6472 468.567C96.9405 467.623 95.3739 466.689 95.2353 466.906Z" fill="#1D2A30"/>
<path d="M95.3531 467.808C95.4479 467.963 97.1787 467.112 99.0615 464.706C99.9907 463.512 100.908 461.916 101.54 459.989C101.848 459.025 102.083 457.982 102.203 456.88C102.283 455.776 102.446 454.335 101.066 453.12C100.303 452.547 99.2276 452.706 98.6418 453.073C98.0074 453.428 97.6355 453.851 97.2235 454.244C96.435 455.068 95.8219 455.987 95.364 456.912C94.4418 458.772 94.1568 460.653 94.2094 462.186C94.3303 465.313 95.6214 466.898 95.7459 466.789C96.0094 466.684 95.1807 465.001 95.3683 462.206C95.4604 460.829 95.8328 459.187 96.7047 457.61C97.1364 456.822 97.6886 456.052 98.3708 455.368C99.0792 454.613 99.8667 454.155 100.122 454.46C100.52 454.727 100.748 455.825 100.606 456.723C100.518 457.715 100.337 458.665 100.093 459.555C99.5948 461.329 98.8584 462.851 98.1104 464.044C96.6031 466.444 95.1839 467.604 95.3531 467.808Z" fill="#1D2A30"/>
<path d="M118.676 482.159L91.7859 523.952C91.7859 523.952 40.2744 510.655 34.553 517.895L113.714 572.944L158.285 509.544L118.676 482.159Z" fill="#F03658"/>
<path d="M118.65 537.544C119.89 539.028 119.751 541.486 118.319 542.788C116.887 544.088 114.385 543.967 113.119 542.505C111.852 541.044 111.929 538.085 113.497 536.955C115.065 535.823 117.996 536.124 118.874 537.848" fill="#E3E3E2"/>
<path d="M113.714 572.944L118.144 566.641L40.4707 516.053C40.4707 516.053 35.8811 515.135 34.553 517.895L113.714 572.944Z" fill="#E3E3E2"/>
<path d="M90.7828 522.656C90.527 523.052 92.3374 524.571 93.375 527.136C94.4806 529.676 94.2964 532.031 94.7578 532.127C95.1672 532.298 96.1973 529.587 94.8864 526.503C93.6036 523.406 90.9458 522.243 90.7828 522.656Z" fill="#1D2A30"/>
<path d="M80.0922 520.316C79.7422 520.629 80.9599 522.452 81.1355 525C81.387 527.541 80.4886 529.54 80.885 529.791C81.2063 530.104 83.0484 528.025 82.7694 524.863C82.5178 521.698 80.3574 519.955 80.0922 520.316Z" fill="#1D2A30"/>
<path d="M68.4656 526.975C68.7594 527.301 70.6407 525.744 71.1198 522.937C71.6198 520.132 70.3782 518.029 69.9902 518.237C69.5506 518.404 69.9344 520.356 69.5058 522.655C69.1312 524.963 68.1084 526.671 68.4656 526.975Z" fill="#1D2A30"/>
<path d="M97.9677 513.812C97.8849 514.277 100.029 514.976 102.111 516.644C104.226 518.27 105.417 520.186 105.848 519.995C106.267 519.87 105.602 517.286 103.122 515.355C100.658 513.406 97.989 513.376 97.9677 513.812Z" fill="#1D2A30"/>
<path d="M103.548 505.48C103.432 505.637 104.795 506.939 107.528 508.217C108.888 508.851 110.596 509.449 112.561 509.827C113.543 510.015 114.588 510.147 115.678 510.201C116.206 510.222 116.802 510.287 117.524 510.103C118.232 509.998 119.189 509.141 119.13 508.17C119.148 507.279 118.614 506.517 118.052 506.108C117.481 505.683 116.927 505.472 116.422 505.279C115.392 504.88 114.361 504.598 113.369 504.411C111.378 504.047 109.544 504.063 108.045 504.268C105.025 504.691 103.394 505.699 103.474 505.867C103.561 506.116 105.296 505.527 108.142 505.423C109.559 505.372 111.252 505.477 113.063 505.889C113.966 506.1 114.898 506.388 115.827 506.771C116.819 507.132 117.536 507.624 117.492 508.146C117.471 508.343 117.442 508.406 117.096 508.529C116.757 508.629 116.263 508.615 115.742 508.598C114.725 508.568 113.744 508.475 112.815 508.339C110.958 508.064 109.313 507.613 107.961 507.143C105.254 506.198 103.687 505.267 103.548 505.48Z" fill="#1D2A30"/>
<path d="M103.666 506.385C103.762 506.539 105.492 505.687 107.374 503.283C108.304 502.087 109.221 500.492 109.853 498.567C110.162 497.603 110.397 496.559 110.517 495.458C110.596 494.351 110.759 492.911 109.38 491.696C108.617 491.123 107.541 491.282 106.955 491.651C106.321 492.004 105.949 492.427 105.537 492.822C104.748 493.644 104.135 494.563 103.678 495.489C102.755 497.348 102.47 499.229 102.523 500.761C102.643 503.889 103.935 505.472 104.059 505.364C104.323 505.26 103.494 503.576 103.682 500.783C103.774 499.404 104.146 497.763 105.018 496.184C105.45 495.399 106.002 494.628 106.684 493.946C107.393 493.189 108.181 492.731 108.435 493.035C108.834 493.303 109.062 494.403 108.919 495.298C108.832 496.292 108.65 497.241 108.407 498.129C107.908 499.906 107.172 501.425 106.424 502.62C104.916 505.019 103.497 506.18 103.666 506.385Z" fill="#1D2A30"/>
<path d="M107.331 490.631C107.331 490.631 130.466 447.191 127.327 451.524C118.782 463.324 169.001 391.749 191.796 355.092C199.131 343.296 211.459 335.505 225.26 333.937C239.219 332.352 253.127 337.313 262.932 347.375L392.495 480.319L452.756 515.408C452.756 515.408 437.929 547.043 390.143 553.68C342.356 560.316 312.939 521.611 288.832 496.965C260.415 467.915 231.967 428.888 231.967 428.888L156.457 528.553C156.457 528.553 109.734 493.472 107.331 490.631Z" fill="#1D2A30"/>
<path d="M200.232 341.808C182.572 346.055 167.023 356.492 156.404 371.227L89.8259 462.712L121.932 484.722L200.232 341.808Z" fill="#1D2A30"/>
<path d="M189.117 352.192C189.125 352.201 189.04 352.315 188.865 352.528C188.664 352.767 188.404 353.073 188.079 353.46C187.719 353.876 187.288 354.375 186.785 354.957C186.281 355.553 185.773 356.304 185.16 357.115C182.677 360.336 179.475 365.285 175.571 371.424C167.879 383.781 157.799 401.191 146.896 420.549C136.029 439.915 126.194 457.444 119.048 470.18C115.473 476.483 112.572 481.598 110.54 485.182C109.538 486.911 108.751 488.271 108.191 489.239C107.932 489.673 107.725 490.017 107.564 490.287C107.42 490.52 107.341 490.637 107.331 490.631C107.32 490.627 107.379 490.498 107.503 490.252C107.648 489.975 107.835 489.619 108.069 489.172C108.603 488.187 109.351 486.806 110.303 485.049C112.291 481.44 115.126 476.289 118.619 469.94C125.661 457.192 135.371 439.571 146.291 420.208C157.196 400.847 167.348 383.465 175.156 371.161C179.119 365.048 182.388 360.132 184.945 356.949C185.577 356.149 186.103 355.411 186.627 354.824C187.151 354.256 187.601 353.771 187.977 353.364C188.324 352.997 188.6 352.705 188.815 352.477C189.007 352.281 189.109 352.184 189.117 352.192Z" fill="#365462"/>
<path d="M230.093 404.572C230.199 404.58 230.16 405.985 230.18 408.247C230.199 410.509 230.316 413.631 230.7 417.056C231.091 420.481 231.675 423.551 232.161 425.759C232.647 427.968 232.997 429.328 232.897 429.359C232.815 429.385 232.296 428.072 231.684 425.877C231.071 423.684 230.404 420.595 230.011 417.133C229.621 413.673 229.583 410.515 229.689 408.239C229.796 405.961 230.008 404.567 230.093 404.572Z" fill="#365462"/>
<path d="M238.935 401.771C239.032 401.808 238.545 403.279 237.819 405.667C237.092 408.055 236.157 411.373 235.344 415.089C234.535 418.808 233.999 422.213 233.664 424.687C233.328 427.161 233.157 428.7 233.053 428.693C232.967 428.687 232.963 427.133 233.176 424.632C233.387 422.132 233.849 418.687 234.665 414.941C235.485 411.196 236.503 407.873 237.352 405.513C238.203 403.151 238.853 401.739 238.935 401.771Z" fill="#365462"/>
<path d="M326.425 176.04L361.109 257.047C367.008 270.821 360.177 286.731 346.127 291.941C333.015 296.803 318.391 290.505 312.899 277.643C310.293 271.543 308.109 266.46 307.8 265.852C307.8 265.852 286.348 272.74 276.121 252.968C271.179 243.413 262.6 222.903 255.055 204.259C246.951 184.235 255.612 161.344 274.919 151.657L276.839 150.695C298.145 141.517 317.843 154.488 326.425 176.04Z" fill="#F9AD95"/>
<path d="M307.623 265.581C307.623 265.581 320.711 260.295 329.864 245.196C329.864 245.196 330.916 262.591 310.164 270.76L307.623 265.581Z" fill="#F6865E"/>
<path d="M267.32 216.5C268.02 218.027 269.889 218.693 271.499 217.992C273.103 217.292 273.841 215.488 273.141 213.961C272.443 212.433 270.571 211.765 268.967 212.465C267.357 213.167 266.621 214.973 267.32 216.5Z" fill="#1D2A30"/>
<path d="M263.365 212.692C263.903 212.885 265.256 210.212 268.319 208.687C271.355 207.119 274.388 207.565 274.531 207.025C274.612 206.777 273.917 206.289 272.583 206.068C271.265 205.841 269.28 205.976 267.379 206.94C265.48 207.905 264.229 209.411 263.669 210.589C263.091 211.783 263.108 212.613 263.365 212.692Z" fill="#1D2A30"/>
<path d="M297.256 201.977C297.956 203.504 299.827 204.171 301.435 203.468C303.039 202.768 303.777 200.965 303.077 199.437C302.377 197.911 300.507 197.243 298.9 197.943C297.293 198.644 296.556 200.451 297.256 201.977Z" fill="#1D2A30"/>
<path d="M294.316 197.636C294.824 197.899 296.517 195.424 299.749 194.311C302.963 193.151 305.912 193.988 306.125 193.471C306.236 193.236 305.616 192.66 304.317 192.268C303.041 191.873 301.055 191.748 299.045 192.455C297.036 193.167 295.6 194.495 294.891 195.592C294.165 196.699 294.072 197.524 294.316 197.636Z" fill="#1D2A30"/>
<path d="M294.848 225.612C294.776 225.432 292.709 226.056 289.433 227.208C288.612 227.519 287.795 227.735 287.396 227.267C286.929 226.796 286.833 225.791 286.756 224.692C286.543 222.435 286.316 220.069 286.083 217.588C285.041 207.516 283.872 199.391 283.465 199.436C283.06 199.483 283.575 207.683 284.616 217.757C284.891 220.231 285.151 222.591 285.404 224.847C285.553 225.883 285.551 227.144 286.537 228.115C287.039 228.592 287.825 228.728 288.393 228.612C288.971 228.513 289.413 228.301 289.812 228.131C292.995 226.743 294.924 225.792 294.848 225.612Z" fill="#1D2A30"/>
<path d="M306.077 185.696C305.593 184.833 302.295 185.821 298.257 185.995C294.221 186.249 290.837 185.615 290.448 186.524C290.277 186.956 290.976 187.728 292.413 188.405C293.839 189.081 296.02 189.589 298.44 189.463C300.86 189.332 302.976 188.597 304.321 187.773C305.679 186.949 306.292 186.108 306.077 185.696Z" fill="#1D2A30"/>
<path d="M267.891 201.548C266.96 201.233 265.441 203.207 263.099 204.804C260.815 206.483 258.449 207.259 258.437 208.241C258.453 208.704 259.199 209.144 260.479 209.179C261.744 209.219 263.516 208.764 265.107 207.639C266.696 206.512 267.713 204.993 268.095 203.785C268.489 202.567 268.321 201.717 267.891 201.548Z" fill="#1D2A30"/>
<path d="M332.192 191.588C332.456 191.271 343.835 180.685 350.224 194.505C356.615 208.325 341.42 211.891 341.213 211.505C341.007 211.12 332.192 191.588 332.192 191.588Z" fill="#F9AD95"/>
<path d="M343.013 204.317C343.055 204.245 343.333 204.375 343.827 204.373C344.307 204.371 345.047 204.181 345.643 203.577C346.855 202.367 347.012 199.481 345.928 196.959C345.381 195.684 344.565 194.608 343.66 193.823C342.771 193.007 341.789 192.603 340.995 192.813C340.185 192.981 339.868 193.663 339.879 194.129C339.872 194.601 340.088 194.837 340.025 194.895C340.004 194.947 339.621 194.8 339.469 194.177C339.399 193.877 339.411 193.476 339.613 193.06C339.82 192.637 340.244 192.275 340.781 192.093C341.881 191.673 343.293 192.211 344.288 193.072C345.341 193.912 346.288 195.108 346.903 196.539C348.101 199.365 347.881 202.629 346.151 204.131C345.295 204.833 344.348 204.916 343.78 204.783C343.193 204.64 342.977 204.364 343.013 204.317Z" fill="#F6865E"/>
<path d="M339.528 187.329C337.201 187.868 334.573 191.584 334.664 193.971C334.753 196.356 335.664 198.655 335.756 201.041C335.849 203.428 334.737 206.185 332.415 206.736C330.812 207.115 329.115 206.287 328.023 205.055C326.931 203.821 326.329 202.24 325.781 200.687C323.396 193.933 321.569 186.963 318.616 180.437C315.661 173.911 311.416 167.721 305.321 163.957C299.228 160.192 291.047 159.279 284.923 162.996C280.865 165.457 278.095 169.607 274.189 172.301C269.56 175.497 263.413 176.381 258.071 174.62C257.891 174.561 257.56 174.493 257.172 174.427C255.365 174.117 253.899 172.667 253.732 170.841C253.676 170.22 253.701 169.615 253.881 169.136C258.348 157.251 272.283 147.567 284.677 144.815C297.073 142.063 311.288 144.657 321.199 152.596C331.108 160.533 336.9 175.584 339.528 187.329Z" fill="#1D2A30"/>
<path d="M306.12 229.395C306.08 229.605 305.379 229.6 304.344 229.769C303.315 229.96 301.932 230.372 300.653 231.304C299.36 232.205 298.423 233.339 297.843 234.219C297.252 235.097 296.968 235.729 296.765 235.684C296.595 235.653 296.54 234.892 296.968 233.771C297.383 232.66 298.337 231.227 299.856 230.167C301.355 229.072 303.104 228.728 304.288 228.789C305.496 228.868 306.157 229.235 306.12 229.395Z" fill="#1D2A30"/>
<path d="M308.552 199.919C308.735 199.927 308.484 201.671 306.955 203.052C305.439 204.451 303.677 204.544 303.688 204.359C303.644 204.16 305.148 203.787 306.485 202.54C307.848 201.321 308.356 199.857 308.552 199.919Z" fill="#F6865E"/>
<path d="M197.679 224.541L218.731 186.048L236.075 172.081L258.448 175.159C258.448 175.159 264.873 182.487 262.393 186.109C259.912 189.733 257.668 198.84 255.151 195.52C252.635 192.2 252.112 185.191 252.112 185.191L246.208 184.873L246.263 195.288L258.153 198.907C258.153 198.907 269.907 189.125 271.099 191.272C272.289 193.419 271.249 197.383 264.519 203.075C257.788 208.768 249.641 217.559 249.641 217.559L239.063 220.068L229.559 235.243L197.679 224.541Z" fill="#F9AD95"/>
<path d="M316.547 273.991L206.076 307.571L231.941 233.823L196.843 222.857L156.963 304.776C144.921 333.103 148.196 345.627 159.391 357.923C168.391 367.807 192.025 362.979 205.165 360.52L301.823 345.448L316.547 273.991Z" fill="#F03658"/>
<path d="M266.433 350.968L266.432 350.967L301.311 345.528L301.312 345.529L266.433 350.968Z" fill="#969796"/>
<path d="M188.483 363.252C194.613 362.545 200.539 361.385 205.165 360.52L266.432 350.967L266.433 350.968L205.165 360.52C200.539 361.385 194.613 362.545 188.483 363.252Z" fill="#16191B"/>
<path d="M178.517 363.887C170.684 363.887 163.507 362.443 159.391 357.923C153.116 351.031 149.329 344.067 149.333 334.287C149.337 326.621 151.672 317.224 156.963 304.776L196.843 222.857L204.851 225.359L173.721 293.081C161.68 321.408 164.955 333.933 176.149 346.229C180.265 350.749 187.445 352.193 195.279 352.193C204.575 352.193 214.793 350.161 221.924 348.828L299.209 341.607C299.225 341.633 299.24 341.657 299.256 341.684C298.427 341.728 297.709 341.783 297.12 341.847C295.873 341.967 295.188 342.056 295.192 342.103C295.193 342.129 295.404 342.141 295.8 342.141C296.125 342.141 296.575 342.133 297.136 342.117C297.777 342.089 298.568 342.072 299.488 342.063C299.527 342.125 299.564 342.187 299.603 342.251L299.813 342.616C300.133 343.26 300.64 344.244 301.311 345.528L266.432 350.967L205.165 360.52C200.539 361.385 194.613 362.545 188.483 363.252C185.812 363.561 183.103 363.783 180.447 363.859C180.283 363.863 180.119 363.867 179.957 363.871C179.475 363.881 178.996 363.887 178.517 363.887Z" fill="#A02232"/>
<path d="M185.807 266.876C185.785 267.067 183.561 266.983 180.839 266.689C178.115 266.397 175.925 266.004 175.945 265.813C175.965 265.624 178.189 265.707 180.913 266C183.636 266.293 185.827 266.685 185.807 266.876Z" fill="#FCFDFD"/>
<path d="M187.556 262.985C187.503 263.169 185.448 262.74 182.965 262.025C180.483 261.312 178.513 260.583 178.567 260.399C178.62 260.215 180.675 260.644 183.157 261.359C185.64 262.072 187.609 262.801 187.556 262.985Z" fill="#FCFDFD"/>
<path d="M295.843 336.125C295.843 336.125 340.411 407.983 340.107 418.713C339.8 429.444 360.711 452.813 369.935 462.039C379.16 471.263 432.461 515.408 452.756 515.408C452.756 515.408 478.921 477.713 477.076 455.573C475.231 433.435 434.12 316.707 434.12 316.707C434.12 316.707 402.224 249.767 372.787 243.232C365.323 241.575 353.372 238.977 353.372 238.977C353.372 239.559 355.104 254.157 340.279 263.188C319.528 275.829 294.851 284.983 294.851 284.983L295.843 336.125Z" fill="#F03658"/>
<path d="M347.656 264.507L280.98 283.753L222.835 295.877L248.7 222.128L211.656 210.556L173.721 293.081C161.68 321.408 164.955 333.933 176.149 346.229C185.149 356.113 208.785 351.287 221.924 348.828L335.447 338.221L347.656 264.507Z" fill="#F03658"/>
<path d="M214.521 211.164L234.653 174.355L251.997 160.387L274.371 163.465C274.371 163.465 280.796 170.793 278.315 174.416C275.835 178.039 273.589 187.147 271.073 183.827C268.556 180.507 268.035 173.496 268.035 173.496L262.131 173.18L262.184 183.595L274.076 187.213C274.076 187.213 285.829 177.432 287.02 179.577C288.212 181.724 287.171 185.689 280.44 191.381C273.711 197.073 265.563 205.865 265.563 205.865L254.984 208.375L246.751 221.52L214.521 211.164Z" fill="#F9AD95"/>
<path d="M246.751 221.52C246.744 221.516 246.784 221.437 246.869 221.288C246.969 221.116 247.096 220.9 247.257 220.624C247.627 220.015 248.147 219.157 248.816 218.052C250.217 215.776 252.248 212.483 254.837 208.281L254.875 208.221L254.945 208.205C258.039 207.457 261.58 206.6 265.512 205.651L265.401 205.715C269.835 200.975 275.175 195.472 281.651 189.931C283.185 188.485 284.72 186.915 285.865 185.04C286.429 184.107 286.909 183.092 287.084 182.019C287.163 181.484 287.153 180.941 287.025 180.429C286.964 180.18 286.851 179.912 286.737 179.716C286.68 179.616 286.501 179.553 286.239 179.592C285.213 179.744 284.148 180.388 283.144 180.964C282.133 181.575 281.137 182.245 280.151 182.947C278.179 184.353 276.221 185.872 274.285 187.464L274.149 187.577L273.981 187.527C270.213 186.384 266.195 185.164 262.087 183.919L261.847 183.847L261.845 183.596C261.827 180.299 261.807 176.767 261.787 173.183L261.785 172.817L262.149 172.836C264.011 172.935 266.024 173.043 268.052 173.151L268.348 173.167L268.379 173.471C268.659 176.205 269.155 179.199 270.355 181.891C270.592 182.425 270.875 182.935 271.204 183.4C271.511 183.879 271.911 184.256 272.28 184.181C272.675 184.121 273.091 183.676 273.411 183.232C273.743 182.775 274.029 182.268 274.3 181.755C275.377 179.683 276.205 177.477 277.32 175.401C277.463 175.141 277.609 174.884 277.765 174.631C277.936 174.376 278.091 174.129 278.187 173.907L278.359 173.563L278.443 173.181C278.523 172.933 278.524 172.665 278.523 172.399C278.519 171.327 278.165 170.249 277.725 169.239C276.817 167.211 275.508 165.361 274.117 163.688L274.324 163.799C266.484 162.712 258.996 161.673 251.955 160.696L252.192 160.629C245.905 165.673 240.087 170.34 234.821 174.564L234.888 174.484C228.676 185.739 223.612 194.913 220.084 201.307C218.325 204.457 216.951 206.92 215.997 208.628C215.535 209.44 215.175 210.072 214.915 210.528C214.667 210.955 214.521 211.164 214.521 211.164C214.521 211.164 214.62 210.929 214.844 210.489C215.089 210.024 215.427 209.38 215.86 208.553C216.784 206.829 218.116 204.343 219.82 201.163C223.3 194.743 228.292 185.529 234.419 174.227L234.444 174.181L234.485 174.147C239.733 169.903 245.535 165.212 251.801 160.145L251.905 160.06L252.04 160.079C259.084 161.04 266.573 162.063 274.416 163.132L274.545 163.149L274.623 163.244C276.067 164.977 277.391 166.835 278.349 168.961C278.811 170.024 279.2 171.167 279.209 172.401C279.211 172.709 279.207 173.017 279.115 173.325L279.009 173.788C278.948 173.935 278.869 174.076 278.799 174.22C278.656 174.525 278.501 174.768 278.351 174.993C278.203 175.233 278.063 175.48 277.925 175.729C276.843 177.748 276.016 179.949 274.913 182.076C274.635 182.608 274.337 183.136 273.971 183.641C273.596 184.119 273.192 184.696 272.385 184.867C271.979 184.937 271.565 184.768 271.291 184.548C271.011 184.324 270.803 184.055 270.636 183.8C270.275 183.288 269.973 182.743 269.724 182.181C268.465 179.344 267.979 176.34 267.689 173.523L268.015 173.843C265.987 173.733 263.975 173.624 262.112 173.524L262.475 173.179C262.492 176.764 262.508 180.296 262.523 183.593L262.284 183.271C266.389 184.524 270.405 185.751 274.172 186.9L273.867 186.961C275.823 185.357 277.788 183.841 279.783 182.427C280.78 181.721 281.788 181.047 282.821 180.425C283.879 179.837 284.879 179.181 286.184 178.977C286.483 178.931 286.987 178.973 287.253 179.381C287.429 179.687 287.536 179.963 287.617 180.275C287.769 180.885 287.773 181.515 287.683 182.112C287.483 183.307 286.964 184.377 286.372 185.349C285.168 187.3 283.599 188.887 282.036 190.349C275.528 195.871 270.192 201.311 265.724 206.015L265.677 206.064L265.613 206.079C261.673 206.996 258.125 207.821 255.025 208.543L255.132 208.465C252.483 212.629 250.405 215.893 248.971 218.149C248.268 219.235 247.724 220.075 247.337 220.673C247.159 220.939 247.02 221.148 246.909 221.313C246.811 221.455 246.759 221.524 246.751 221.52Z" fill="#F6865E"/>
<path d="M341.537 354.969C341.507 355.007 340.935 354.615 339.931 353.876C339.433 353.501 338.819 353.049 338.073 352.571C337.336 352.083 336.52 351.492 335.553 350.94C333.676 349.747 331.317 348.535 328.648 347.315C325.948 346.159 322.9 345.075 319.619 344.228C313.041 342.532 306.859 342.143 302.415 342.065C300.188 342.047 298.383 342.064 297.136 342.117C295.888 342.153 295.196 342.151 295.192 342.103C295.188 342.056 295.873 341.967 297.12 341.847C298.365 341.711 300.176 341.62 302.415 341.575C306.885 341.525 313.135 341.84 319.791 343.555C323.111 344.412 326.191 345.528 328.907 346.731C331.595 347.996 333.955 349.268 335.815 350.524C336.775 351.109 337.577 351.733 338.299 352.253C339.027 352.767 339.621 353.252 340.096 353.663C341.055 354.471 341.568 354.933 341.537 354.969Z" fill="#1D2A30"/>
<path d="M334.249 267.984C334.264 268.029 333.551 268.289 332.251 268.717C330.829 269.168 328.968 269.757 326.725 270.469C322.051 271.919 315.581 273.876 308.423 275.996C301.261 278.119 294.767 280.001 290.055 281.332C287.783 281.959 285.9 282.477 284.46 282.875C283.135 283.224 282.393 283.396 282.377 283.349C282.361 283.305 283.072 283.047 284.371 282.62C285.791 282.169 287.651 281.579 289.893 280.868C294.567 279.419 301.041 277.46 308.208 275.337C315.371 273.215 321.869 271.329 326.581 270C328.852 269.373 330.735 268.855 332.173 268.459C333.499 268.109 334.236 267.937 334.249 267.984Z" fill="#1D2A30"/>
<path d="M439.356 459.351C439.375 459.368 439.127 459.646 438.639 460.161C438.389 460.413 438.101 460.749 437.716 461.098C437.311 461.443 436.856 461.831 436.348 462.264C434.251 463.956 430.784 465.971 426.076 467.176C421.387 468.361 415.473 468.649 409.203 467.276C402.923 465.908 396.487 462.786 390.391 458.671C384.288 454.527 379.008 449.894 374.231 445.701C369.463 441.496 365.133 437.756 361.308 434.857C357.485 431.957 354.203 429.871 351.864 428.553C350.693 427.899 349.779 427.399 349.145 427.081C348.519 426.752 348.195 426.569 348.205 426.547C348.216 426.525 348.56 426.667 349.207 426.956C349.86 427.233 350.797 427.695 351.995 428.316C354.383 429.567 357.724 431.601 361.603 434.464C365.483 437.327 369.86 441.041 374.653 445.22C379.452 449.385 384.725 453.984 390.779 458.095C396.824 462.176 403.175 465.275 409.341 466.652C415.505 468.036 421.327 467.806 425.96 466.698C430.609 465.572 434.06 463.658 436.184 462.049C436.701 461.639 437.167 461.271 437.579 460.943C437.975 460.615 438.276 460.296 438.54 460.063C439.059 459.582 439.34 459.336 439.356 459.351Z" fill="#1D2A30"/>
<path d="M414.089 383.633C414.091 383.681 413.621 383.723 412.768 383.755C411.915 383.801 410.676 383.761 409.155 383.615C407.629 383.479 405.831 383.159 403.867 382.657C401.913 382.125 399.803 381.392 397.681 380.403C395.569 379.391 393.664 378.223 392.011 377.051C390.379 375.851 388.989 374.663 387.917 373.571C386.839 372.487 386.021 371.555 385.516 370.865C385.001 370.184 384.733 369.796 384.772 369.767C384.872 369.685 386.041 371.165 388.257 373.216C389.357 374.247 390.756 375.377 392.381 376.528C394.025 377.652 395.905 378.78 397.979 379.775C400.061 380.745 402.124 381.483 404.036 382.04C405.956 382.567 407.717 382.931 409.213 383.128C412.204 383.54 414.089 383.505 414.089 383.633Z" fill="#1D2A30"/>
<path d="M419.195 468.348C418.145 468.348 417.04 468.286 415.863 468.152C416.445 468.179 417.02 468.191 417.588 468.191C420.681 468.191 423.556 467.813 426.076 467.176C426.619 467.036 427.145 466.887 427.655 466.728C425.153 467.739 422.452 468.348 419.195 468.348ZM417.913 467.611C415.199 467.611 412.309 467.319 409.341 466.652C405.388 465.77 401.357 464.177 397.381 462.073C394.503 460.407 391.683 458.648 388.917 456.8C383.635 453.034 378.953 448.952 374.653 445.22C370.531 441.627 366.717 438.376 363.261 435.716C363.257 435.712 363.253 435.708 363.249 435.704C364.937 435.009 366.715 434.7 368.509 434.7C372.471 434.7 376.523 436.203 379.913 438.372C384.843 441.525 388.792 445.959 393.229 449.771C397.668 453.583 402.957 456.907 408.805 457.085C408.976 457.091 409.145 457.094 409.315 457.094C413.404 457.094 417.296 455.607 421.192 454.119C425.087 452.632 428.984 451.146 433.085 451.146C433.159 451.146 433.232 451.146 433.305 451.147C436.457 451.188 440.192 452.864 440.367 456.013C440.503 458.435 438.439 460.379 436.413 461.716C434.787 462.791 433.253 463.801 431.721 464.695C430.076 465.461 428.152 466.167 425.96 466.698C423.557 467.272 420.836 467.611 417.913 467.611ZM375.199 446.549C372.957 444.691 370.753 442.768 368.589 440.787C370.393 442.329 372.275 443.976 374.231 445.701C374.551 445.983 374.873 446.265 375.199 446.549Z" fill="#D82B43"/>
<path d="M417.588 468.191C417.02 468.191 416.445 468.179 415.863 468.152C411.873 467.701 407.083 466.446 401.02 464.116C399.797 463.451 398.584 462.771 397.381 462.073C401.357 464.177 405.388 465.77 409.341 466.652C412.309 467.319 415.199 467.611 417.913 467.611C420.836 467.611 423.557 467.272 425.96 466.698C428.152 466.167 430.076 465.461 431.721 464.695C430.387 465.475 429.052 466.164 427.655 466.728C427.145 466.887 426.619 467.036 426.076 467.176C423.556 467.813 420.681 468.191 417.588 468.191ZM388.917 456.8C384.187 453.637 379.616 450.215 375.199 446.549C374.873 446.265 374.551 445.983 374.231 445.701C372.275 443.976 370.393 442.329 368.589 440.787C366.788 439.137 365.012 437.447 363.261 435.716C366.717 438.376 370.531 441.627 374.653 445.22C378.953 448.952 383.635 453.034 388.917 456.8Z" fill="#182124"/>
<path d="M341.217 418.56C341.049 418.651 331.555 401.527 320.013 380.317C308.469 359.099 299.251 341.831 299.419 341.739C299.588 341.647 309.08 358.767 320.624 379.985C332.165 401.195 341.387 418.468 341.217 418.56Z" fill="#1D2A30"/>
<path d="M277.228 343.067C277.184 343.084 276.853 342.36 276.292 341.036C275.725 339.713 274.965 337.776 274.081 335.36C272.311 330.531 270.141 323.748 268.319 316.107C266.505 308.46 265.388 301.428 264.796 296.317C264.497 293.763 264.303 291.689 264.215 290.255C264.119 288.82 264.089 288.024 264.136 288.02C264.184 288.016 264.305 288.803 264.483 290.229C264.655 291.653 264.923 293.715 265.283 296.255C265.999 301.336 267.188 308.328 268.995 315.947C270.811 323.56 272.896 330.339 274.545 335.197C275.368 337.628 276.056 339.588 276.544 340.939C277.027 342.292 277.273 343.048 277.228 343.067Z" fill="#FCFDFD"/>
<path d="M284.991 342.964C284.947 342.981 284.628 342.22 284.091 340.828C283.547 339.44 282.821 337.405 281.983 334.873C280.301 329.811 278.265 322.712 276.608 314.736C274.96 306.755 274.008 299.431 273.54 294.117C273.304 291.46 273.161 289.305 273.108 287.815C273.049 286.324 273.039 285.499 273.087 285.496C273.135 285.493 273.236 286.312 273.377 287.795C273.513 289.279 273.731 291.423 274.028 294.068C274.62 299.356 275.645 306.641 277.288 314.595C278.94 322.543 280.892 329.636 282.451 334.725C283.228 337.269 283.88 339.324 284.345 340.739C284.804 342.156 285.036 342.949 284.991 342.964Z" fill="#FCFDFD"/>
<path d="M384.961 371.235C384.967 371.257 384.747 371.328 384.323 371.441C383.819 371.568 383.203 371.72 382.457 371.905C380.837 372.3 378.476 372.804 375.545 373.364C369.685 374.489 361.521 375.724 352.44 376.44C343.353 377.144 335.096 377.195 329.133 376.996C326.152 376.899 323.74 376.768 322.079 376.629C321.313 376.563 320.681 376.508 320.165 376.461C319.729 376.415 319.5 376.38 319.501 376.356C319.503 376.332 319.735 376.321 320.173 376.321C320.692 376.332 321.325 376.345 322.092 376.359C323.757 376.415 326.168 376.469 329.144 376.505C335.097 376.577 343.328 376.451 352.387 375.747C361.441 375.033 369.589 373.88 375.459 372.881C378.395 372.384 380.767 371.955 382.401 371.64C383.157 371.507 383.783 371.396 384.292 371.304C384.727 371.236 384.956 371.211 384.961 371.235Z" fill="#FCFDFD"/>
<path d="M441.251 348.856C441.28 348.896 440.668 349.391 439.533 350.253C438.405 351.125 436.728 352.324 434.617 353.751C430.397 356.609 424.363 360.272 417.373 363.697C410.376 367.113 403.779 369.628 398.932 371.203C396.509 371.993 394.532 372.581 393.153 372.937C391.776 373.301 391.009 373.481 390.996 373.436C390.983 373.389 391.725 373.123 393.075 372.679C394.429 372.243 396.379 371.585 398.773 370.739C403.564 369.049 410.101 366.475 417.067 363.073C424.027 359.664 430.072 356.084 434.347 353.341C436.487 351.971 438.203 350.836 439.377 350.033C440.557 349.239 441.224 348.817 441.251 348.856Z" fill="#FCFDFD"/>
<path d="M440.132 337.089C440.139 337.099 440.052 337.175 439.873 337.312C439.66 337.471 439.396 337.669 439.071 337.911C438.311 338.459 437.267 339.209 435.945 340.161C435.259 340.648 434.501 341.187 433.676 341.773C432.833 342.344 431.889 342.919 430.889 343.561C428.872 344.817 426.628 346.339 423.993 347.756C422.688 348.492 421.323 349.261 419.9 350.064C418.473 350.857 416.931 351.573 415.364 352.375C412.249 354.017 408.783 355.477 405.163 357.076C397.843 360.084 389.612 362.956 380.761 365.233C371.889 367.436 363.279 368.824 355.408 369.656C351.463 369.969 347.719 370.332 344.196 370.367C342.437 370.407 340.739 370.511 339.107 370.491C337.475 370.46 335.907 370.432 334.409 370.407C331.416 370.409 328.72 370.137 326.348 369.991C325.164 369.903 324.06 369.844 323.048 369.743C322.043 369.62 321.121 369.505 320.285 369.403C318.669 369.193 317.395 369.028 316.465 368.908C316.065 368.849 315.739 368.801 315.476 368.763C315.253 368.727 315.14 368.701 315.141 368.689C315.144 368.679 315.26 368.68 315.485 368.692C315.751 368.713 316.079 368.739 316.484 368.771C317.413 368.859 318.693 368.98 320.313 369.133C321.149 369.219 322.071 369.312 323.076 369.413C324.088 369.495 325.192 369.533 326.376 369.604C328.743 369.713 331.435 369.952 334.42 369.915C335.913 369.927 337.476 369.94 339.103 369.955C340.731 369.961 342.423 369.844 344.176 369.792C347.684 369.732 351.415 369.349 355.345 369.019C363.181 368.155 371.753 366.753 380.591 364.56C389.405 362.291 397.612 359.451 404.917 356.487C408.531 354.908 411.995 353.472 415.111 351.857C416.676 351.071 418.221 350.369 419.649 349.589C421.075 348.804 422.443 348.051 423.751 347.331C426.395 345.944 428.649 344.455 430.681 343.233C431.688 342.608 432.641 342.049 433.493 341.497C434.331 340.929 435.097 340.409 435.792 339.937C437.144 339.032 438.212 338.317 438.989 337.797C439.331 337.577 439.607 337.4 439.831 337.255C440.023 337.136 440.124 337.079 440.132 337.089Z" fill="#FCFDFD"/>
<path d="M239.073 249.577C239.02 249.761 230.053 247.32 219.047 244.124C208.039 240.928 199.16 238.187 199.213 238.003C199.267 237.82 208.232 240.26 219.241 243.457C230.247 246.653 239.127 249.393 239.073 249.577Z" fill="#FCFDFD"/>
<path d="M237.315 254.593C237.26 254.777 228.155 252.285 216.98 249.028C205.8 245.768 196.784 242.979 196.837 242.793C196.891 242.611 205.993 245.101 217.173 248.361C228.349 251.619 237.368 254.409 237.315 254.593Z" fill="#FCFDFD"/>
<path d="M329.659 394.205L305.981 353.277C304.612 350.807 303.416 348.661 302.435 346.913C305.976 352.765 310.588 360.473 315.365 368.687C315.303 368.683 315.253 368.681 315.216 368.681C315.168 368.681 315.143 368.684 315.141 368.689C315.14 368.7 315.228 368.72 315.403 368.751C316.851 371.241 318.315 373.78 319.768 376.325C319.593 376.331 319.501 376.341 319.501 376.356C319.5 376.373 319.611 376.395 319.823 376.423C323.275 382.471 326.667 388.568 329.659 394.205Z" fill="#B2B1B0"/>
<path d="M333.107 394.291C332.017 394.291 330.889 394.255 329.659 394.205C326.667 388.568 323.275 382.471 319.823 376.423C319.917 376.435 320.032 376.448 320.165 376.461C320.681 376.508 321.313 376.563 322.079 376.629C323.74 376.768 326.152 376.899 329.133 376.996C331.025 377.059 333.147 377.097 335.453 377.097C340.368 377.097 346.12 376.924 352.255 376.455C352.272 376.693 352.287 376.932 352.299 377.173C352.484 380.961 351.851 384.944 349.601 387.997C347.347 391.055 343.701 392.848 339.983 393.616C337.471 394.135 335.373 394.291 333.107 394.291ZM332.137 376.523C331.087 376.523 330.087 376.516 329.144 376.505C326.168 376.469 323.757 376.415 322.092 376.359C321.325 376.345 320.692 376.332 320.173 376.321C320.008 376.321 319.873 376.323 319.768 376.325C318.315 373.78 316.851 371.241 315.403 368.751C315.425 368.755 315.451 368.759 315.476 368.763C315.739 368.801 316.065 368.849 316.465 368.908C317.395 369.028 318.669 369.193 320.285 369.403C321.121 369.505 322.043 369.62 323.048 369.743C324.06 369.844 325.164 369.903 326.348 369.991C328.703 370.137 331.379 370.407 334.347 370.407C334.368 370.407 334.389 370.407 334.409 370.407C335.907 370.432 337.475 370.46 339.107 370.491C339.245 370.492 339.384 370.493 339.524 370.493C341.028 370.493 342.587 370.404 344.196 370.367C346.388 370.345 348.667 370.196 351.027 370.012C351.603 371.88 352 373.803 352.195 375.761C344.644 376.341 337.677 376.523 332.137 376.523ZM339.235 369.955C339.191 369.955 339.147 369.955 339.103 369.955C337.476 369.94 335.913 369.927 334.42 369.915C334.211 369.917 334.003 369.919 333.796 369.919C331.059 369.919 328.577 369.705 326.376 369.604C325.192 369.533 324.088 369.495 323.076 369.413C322.071 369.312 321.149 369.219 320.313 369.133C318.693 368.98 317.413 368.859 316.484 368.771C316.079 368.739 315.751 368.713 315.485 368.692C315.441 368.689 315.401 368.688 315.365 368.687C310.588 360.473 305.976 352.765 302.435 346.913C301.139 344.607 300.215 342.991 299.752 342.231C301.157 342.156 302.564 342.112 303.971 342.104C308.248 342.247 313.777 342.723 319.619 344.228C322.9 345.075 325.948 346.159 328.648 347.315C331.317 348.535 333.676 349.747 335.553 350.94C336.52 351.492 337.336 352.083 338.073 352.571C338.819 353.049 339.433 353.501 339.931 353.876C340.86 354.56 341.42 354.947 341.521 354.971C345.728 359.017 349.035 363.972 350.833 369.408C348.535 369.599 346.315 369.755 344.176 369.792C342.469 369.843 340.823 369.955 339.235 369.955ZM339.963 353.548C339.512 353.163 338.96 352.72 338.299 352.253C337.577 351.733 336.775 351.109 335.815 350.524C333.955 349.268 331.595 347.996 328.907 346.731C328.147 346.393 327.357 346.064 326.541 345.744C328.945 346.639 331.284 347.716 333.54 349.001C335.811 350.295 337.971 351.824 339.963 353.548Z" fill="#BC283B"/>
<path d="M299.813 342.616L299.603 342.251C299.656 342.337 299.709 342.427 299.764 342.516C299.78 342.548 299.796 342.581 299.813 342.616Z" fill="#6C1922"/>
<path d="M299.764 342.516C299.709 342.427 299.656 342.337 299.603 342.251L299.596 342.239C299.607 342.239 299.617 342.239 299.628 342.237C299.668 342.32 299.713 342.413 299.764 342.516Z" fill="#BC283B"/>
<path d="M341.521 354.971C341.42 354.947 340.86 354.56 339.931 353.876C339.433 353.501 338.819 353.049 338.073 352.571C337.336 352.083 336.52 351.492 335.553 350.94C333.676 349.747 331.317 348.535 328.648 347.315C325.948 346.159 322.9 345.075 319.619 344.228C313.777 342.723 308.248 342.247 303.971 342.104C304.125 342.104 304.28 342.103 304.435 342.103C311.999 342.103 319.54 343.14 326.541 345.744C327.357 346.064 328.147 346.393 328.907 346.731C331.595 347.996 333.955 349.268 335.815 350.524C336.775 351.109 337.577 351.733 338.299 352.253C338.96 352.72 339.512 353.163 339.963 353.548C340.495 354.008 341.015 354.483 341.521 354.971Z" fill="#161C1E"/>
<path d="M305.981 353.277L299.813 342.616C299.796 342.581 299.78 342.548 299.764 342.516C299.713 342.413 299.668 342.32 299.628 342.237C299.671 342.235 299.711 342.233 299.752 342.231C300.215 342.991 301.139 344.607 302.435 346.913C303.416 348.661 304.612 350.807 305.981 353.277Z" fill="#161C1E"/>
<path d="M335.453 377.097C333.147 377.097 331.025 377.059 329.133 376.996C326.152 376.899 323.74 376.768 322.079 376.629C321.313 376.563 320.681 376.508 320.165 376.461C320.032 376.448 319.917 376.435 319.823 376.423C319.611 376.395 319.5 376.373 319.501 376.356C319.501 376.341 319.593 376.331 319.768 376.325C319.873 376.323 320.008 376.321 320.173 376.321C320.692 376.332 321.325 376.345 322.092 376.359C323.757 376.415 326.168 376.469 329.144 376.505C330.087 376.516 331.087 376.523 332.137 376.523C337.677 376.523 344.644 376.341 352.195 375.761C352.217 375.992 352.237 376.223 352.255 376.455C346.12 376.924 340.368 377.097 335.453 377.097Z" fill="#AFAEAD"/>
<path d="M339.524 370.493C339.384 370.493 339.245 370.492 339.107 370.491C337.475 370.46 335.907 370.432 334.409 370.407C334.389 370.407 334.368 370.407 334.347 370.407C331.379 370.407 328.703 370.137 326.348 369.991C325.164 369.903 324.06 369.844 323.048 369.743C322.043 369.62 321.121 369.505 320.285 369.403C318.669 369.193 317.395 369.028 316.465 368.908C316.065 368.849 315.739 368.801 315.476 368.763C315.451 368.759 315.425 368.755 315.403 368.751C315.228 368.72 315.14 368.7 315.141 368.689C315.143 368.684 315.168 368.681 315.216 368.681C315.253 368.681 315.303 368.683 315.365 368.687C315.401 368.688 315.441 368.689 315.485 368.692C315.751 368.713 316.079 368.739 316.484 368.771C317.413 368.859 318.693 368.98 320.313 369.133C321.149 369.219 322.071 369.312 323.076 369.413C324.088 369.495 325.192 369.533 326.376 369.604C328.577 369.705 331.059 369.919 333.796 369.919C334.003 369.919 334.211 369.917 334.42 369.915C335.913 369.927 337.476 369.94 339.103 369.955C339.147 369.955 339.191 369.955 339.235 369.955C340.823 369.955 342.469 369.843 344.176 369.792C346.315 369.755 348.535 369.599 350.833 369.408C350.9 369.608 350.964 369.809 351.027 370.012C348.667 370.196 346.388 370.345 344.196 370.367C342.587 370.404 341.028 370.493 339.524 370.493Z" fill="#AFAEAD"/>
<path d="M512.353 482.634C512.337 482.624 512.449 482.355 512.683 481.841C512.947 481.28 513.299 480.528 513.748 479.571C514.652 477.565 515.829 474.527 516.876 470.484C518.947 462.404 519.669 450.058 516.609 435.391C515.188 428.048 512.897 420.172 510.101 411.82C507.345 403.455 504.147 394.577 501.533 384.984C498.948 375.412 496.908 365.02 497.301 354.128C497.699 343.213 500.929 332.32 504.483 321.476C508.028 310.615 511.696 299.999 512.795 289.32C514.039 278.66 511.756 268.195 506.899 259.621C502.196 250.956 496.279 243.545 491.849 235.868C487.352 228.216 484.539 220.348 482.805 213.032C479.444 198.279 480.623 185.847 482.231 177.653C483.977 169.417 485.923 165.16 485.923 165.16C485.941 165.167 485.867 165.448 485.704 165.989C485.52 166.581 485.273 167.375 484.956 168.385C484.305 170.489 483.463 173.632 482.663 177.737C481.192 185.912 480.152 198.259 483.58 212.849C485.348 220.085 488.175 227.849 492.656 235.396C497.073 242.981 503.017 250.361 507.815 259.128C512.772 267.797 515.157 278.603 513.895 289.429C512.788 300.291 509.093 310.977 505.556 321.825C502.003 332.66 498.808 343.44 498.404 354.171C498.003 364.896 499.992 375.185 502.535 384.712C505.105 394.26 508.268 403.137 510.989 411.527C513.751 419.904 516.012 427.844 517.392 435.239C520.371 450.013 519.52 462.486 517.301 470.592C516.179 474.651 514.929 477.683 513.955 479.667C513.46 480.606 513.073 481.344 512.785 481.895C512.516 482.394 512.371 482.643 512.353 482.634Z" fill="#1D2A30"/>
<path d="M497.865 243.44C497.865 243.44 488.873 214.684 505.004 197.848C505.569 197.256 506.567 197.536 506.713 198.341C507.575 203.089 508.652 217.555 497.865 243.44Z" fill="#F03658"/>
<path d="M503.253 207.429C503.405 207.46 503.148 209.483 502.647 212.735C502.056 216.388 501.363 220.679 500.596 225.417C499.844 230.157 499.163 234.447 498.583 238.1C498.089 241.348 497.795 243.363 497.629 243.349C497.485 243.339 497.5 241.292 497.791 238.004C498.089 234.719 498.668 230.199 499.484 225.236C500.295 220.275 501.16 215.807 501.864 212.588C502.565 209.369 503.1 207.399 503.253 207.429Z" fill="#1D2A30"/>
<path d="M508.429 311.264C508.429 311.264 513.928 281.64 536.061 274.301C536.839 274.044 537.588 274.757 537.341 275.537C535.883 280.137 530.068 293.427 508.429 311.264Z" fill="#F03658"/>
<path d="M530.032 281.952C530.153 282.051 528.98 283.719 527.016 286.357C524.785 289.312 522.165 292.78 519.272 296.609C516.389 300.448 513.781 303.92 511.561 306.879C509.607 309.519 508.403 311.161 508.264 311.072C508.14 310.996 509.111 309.192 510.905 306.424C512.705 303.659 515.332 299.935 518.372 295.929C521.409 291.923 524.264 288.379 526.392 285.863C528.517 283.347 529.911 281.853 530.032 281.952Z" fill="#1D2A30"/>
<path d="M502.448 385.58C502.448 385.58 499.107 355.636 518.153 342.185C518.823 341.713 519.748 342.179 519.737 342.997C519.677 347.823 517.975 362.228 502.448 385.58Z" fill="#F03658"/>
<path d="M514.607 351.257C514.751 351.316 514.113 353.252 513.001 356.349C511.724 359.824 510.224 363.904 508.567 368.408C506.924 372.919 505.437 376.999 504.171 380.475C503.067 383.569 502.395 385.489 502.235 385.445C502.095 385.407 502.499 383.401 503.412 380.229C504.332 377.061 505.763 372.735 507.509 368.019C509.252 363.303 510.955 359.083 512.259 356.057C513.563 353.031 514.463 351.199 514.607 351.257Z" fill="#1D2A30"/>
<path d="M519.121 460.332C519.121 460.332 516.853 430.288 536.369 417.527C537.056 417.079 537.963 417.576 537.924 418.395C537.691 423.215 535.472 437.549 519.121 460.332Z" fill="#F03658"/>
<path d="M532.501 426.465C532.643 426.529 531.935 428.443 530.712 431.497C529.312 434.924 527.667 438.947 525.849 443.391C524.047 447.839 522.415 451.863 521.024 455.292C519.812 458.344 519.069 460.237 518.912 460.188C518.773 460.146 519.249 458.155 520.276 455.017C521.308 451.885 522.893 447.613 524.807 442.961C526.719 438.312 528.569 434.156 529.983 431.179C531.393 428.201 532.359 426.403 532.501 426.465Z" fill="#1D2A30"/>
<path d="M484.943 218.176C484.943 218.176 458.235 204.228 457.711 180.916C457.692 180.099 458.595 179.589 459.268 180.056C463.237 182.8 474.236 192.255 484.943 218.176Z" fill="#F03658"/>
<path d="M463.256 188.924C463.387 188.837 464.636 190.448 466.584 193.1C468.753 196.1 471.299 199.621 474.113 203.512C476.936 207.392 479.492 210.904 481.669 213.896C483.62 216.539 484.837 218.169 484.711 218.277C484.6 218.372 483.163 216.916 481.041 214.388C478.925 211.856 476.135 208.253 473.199 204.171C470.26 200.092 467.709 196.323 465.928 193.552C464.145 190.781 463.127 189.011 463.256 188.924Z" fill="#1D2A30"/>
<path d="M513.62 279.933C513.62 279.933 486.116 267.633 484.177 244.396C484.109 243.58 484.977 243.019 485.677 243.443C489.807 245.94 501.36 254.711 513.62 279.933Z" fill="#F03658"/>
<path d="M490.199 252.052C490.323 251.959 491.668 253.489 493.773 256.019C496.121 258.881 498.876 262.241 501.92 265.953C504.975 269.656 507.737 273.005 510.092 275.859C512.2 278.379 513.513 279.933 513.396 280.048C513.291 280.151 511.768 278.784 509.497 276.388C507.232 273.989 504.228 270.564 501.048 266.667C497.867 262.775 495.092 259.168 493.145 256.509C491.197 253.852 490.075 252.147 490.199 252.052Z" fill="#1D2A30"/>
<path d="M497.793 348.819C497.793 348.819 478.908 325.343 487.767 303.773C488.077 303.016 489.108 302.911 489.539 303.608C492.076 307.712 498.367 320.783 497.793 348.819Z" fill="#F03658"/>
<path d="M489.64 313.332C489.793 313.304 490.293 315.281 491.016 318.491C491.803 322.108 492.725 326.355 493.744 331.047C494.779 335.733 495.713 339.973 496.509 343.587C497.237 346.791 497.7 348.772 497.541 348.82C497.401 348.863 496.668 346.953 495.737 343.787C494.812 340.62 493.699 336.2 492.644 331.284C491.584 326.369 490.756 321.895 490.233 318.641C489.711 315.389 489.488 313.359 489.64 313.332Z" fill="#1D2A30"/>
<path d="M516.501 429.884C516.501 429.884 489.207 417.124 487.659 393.857C487.604 393.041 488.483 392.495 489.175 392.929C493.263 395.497 504.667 404.459 516.501 429.884Z" fill="#F03658"/>
<path d="M493.551 401.615C493.675 401.521 494.996 403.076 497.059 405.64C499.357 408.541 502.056 411.948 505.037 415.711C508.028 419.463 510.735 422.859 513.043 425.752C515.108 428.307 516.396 429.883 516.275 429.996C516.168 430.096 514.668 428.704 512.437 426.272C510.212 423.836 507.267 420.357 504.153 416.409C501.039 412.464 498.324 408.811 496.423 406.121C494.52 403.431 493.425 401.707 493.551 401.615Z" fill="#1D2A30"/>
<path d="M570.865 311.424C570.892 311.427 570.903 311.652 570.9 312.088C570.888 312.613 570.872 313.245 570.852 314.016C570.773 315.825 570.665 318.269 570.529 321.32C570.177 327.743 569.687 336.697 569.1 347.409L569.099 347.435L569.092 347.471C567.144 358.375 561.592 370.457 554.132 382.191C548.663 390.833 542.927 398.691 537.981 405.999C533.003 413.287 528.8 420.035 525.872 426.016C522.923 431.989 521.208 437.121 520.205 440.707C519.727 442.507 519.365 443.909 519.159 444.871C518.933 445.827 518.797 446.328 518.759 446.32C518.721 446.313 518.783 445.8 518.936 444.827C519.071 443.848 519.364 442.424 519.781 440.596C520.659 436.956 522.273 431.736 525.155 425.669C528.015 419.592 532.179 412.752 537.121 405.419C542.032 398.059 547.736 390.188 553.179 381.589C560.599 369.915 566.121 358.015 568.143 347.288L568.135 347.349C568.888 336.647 569.516 327.701 569.967 321.285C570.213 318.24 570.411 315.801 570.557 313.996C570.633 313.232 570.697 312.601 570.749 312.079C570.801 311.645 570.841 311.423 570.865 311.424Z" fill="#1D2A30"/>
<path d="M554.615 379.949C554.615 379.949 566.175 352.125 551.633 333.896C551.123 333.256 550.104 333.444 549.887 334.233C548.599 338.884 546.217 353.191 554.615 379.949Z" fill="#F03658"/>
<path d="M552.509 343.597C552.664 343.58 553.017 345.592 553.425 348.861C553.835 352.129 554.292 356.659 554.651 361.673C555.013 366.687 555.18 371.241 555.18 374.541C555.173 377.841 555.003 379.881 554.856 379.879C554.691 379.876 554.58 377.845 554.384 374.567C554.136 370.875 553.847 366.541 553.527 361.752C553.192 356.963 552.891 352.628 552.632 348.935C552.428 345.651 552.355 343.613 552.509 343.597Z" fill="#1D2A30"/>
<path d="M548.56 379.949H558.972V333.511H548.56V379.949Z" fill="#BC283B"/>
<path d="M554.755 379.596C554.639 378.931 554.537 377.131 554.384 374.567C554.136 370.875 553.847 366.541 553.527 361.752C553.192 356.963 552.891 352.628 552.632 348.935C552.428 345.651 552.355 343.613 552.509 343.597C552.509 343.597 552.509 343.597 552.511 343.597C552.667 343.597 553.02 345.605 553.425 348.861C553.835 352.129 554.292 356.659 554.651 361.673C555.013 366.687 555.18 371.241 555.18 374.541C555.176 376.436 555.117 377.915 555.041 378.831C554.924 379.153 554.827 379.411 554.755 379.596Z" fill="#161C1E"/>
<path d="M518.811 446.999C518.811 446.999 528.076 418.329 512.105 401.34C511.545 400.743 510.545 401.013 510.392 401.817C509.485 406.557 508.272 421.012 518.811 446.999Z" fill="#F03658"/>
<path d="M513.765 410.937C513.919 410.908 514.433 412.885 515.105 416.111C515.779 419.336 516.601 423.811 517.365 428.78C518.133 433.749 518.671 438.275 518.937 441.564C519.197 444.852 519.192 446.9 519.047 446.91C518.883 446.92 518.607 444.904 518.144 441.652C517.6 437.993 516.959 433.697 516.252 428.951C515.529 424.204 514.877 419.908 514.321 416.248C513.849 412.992 513.613 410.965 513.765 410.937Z" fill="#1D2A30"/>
<path d="M518.811 446.999C511.441 428.828 509.819 416.296 509.819 408.78C509.819 405.548 510.119 403.243 510.392 401.817C510.488 401.311 510.92 401.016 511.367 401.016C511.629 401.016 511.897 401.119 512.105 401.34C519.499 409.204 521.484 419.571 521.484 428.439C521.484 436.447 519.864 443.232 519.147 445.848C519.148 444.928 519.087 443.451 518.937 441.564C518.671 438.275 518.133 433.749 517.365 428.78C516.601 423.811 515.779 419.336 515.105 416.111C514.437 412.908 513.927 410.937 513.768 410.937C513.768 410.937 513.767 410.937 513.765 410.937C513.613 410.965 513.849 412.992 514.321 416.248C514.877 419.908 515.529 424.204 516.252 428.951C516.959 433.697 517.6 437.993 518.144 441.652C518.505 444.195 518.753 445.98 518.923 446.635C518.851 446.873 518.811 446.999 518.811 446.999Z" fill="#BC283B"/>
<path d="M518.923 446.635C518.753 445.98 518.505 444.195 518.144 441.652C517.6 437.993 516.959 433.697 516.252 428.951C515.529 424.204 514.877 419.908 514.321 416.248C513.849 412.992 513.613 410.965 513.765 410.937C513.767 410.937 513.768 410.937 513.768 410.937C513.927 410.937 514.437 412.908 515.105 416.111C515.779 419.336 516.601 423.811 517.365 428.78C518.133 433.749 518.671 438.275 518.937 441.564C519.087 443.451 519.148 444.928 519.147 445.848C519.056 446.179 518.979 446.443 518.923 446.635Z" fill="#161C1E"/>
<path d="M569.336 345.945C569.336 345.945 594.017 328.665 591.527 305.481C591.44 304.668 590.48 304.28 589.872 304.828C586.289 308.063 576.604 318.859 569.336 345.945Z" fill="#F03658"/>
<path d="M569.336 345.945C576.604 318.859 586.289 308.063 589.872 304.828C590.067 304.652 590.299 304.572 590.525 304.572C591.005 304.572 591.468 304.929 591.527 305.481C591.647 306.591 591.703 307.687 591.704 308.768C591.712 330.279 569.336 345.945 569.336 345.945Z" fill="#BC283B"/>
<path d="M587.063 314.137C587.201 314.207 586.421 316.095 585.011 319.072C583.603 322.051 581.56 326.117 579.172 330.541C576.788 334.968 574.485 338.901 572.715 341.684C570.937 344.465 569.699 346.096 569.577 346.016C569.44 345.924 570.436 344.151 572.028 341.277C573.8 338.029 575.881 334.219 578.18 330.005C580.468 325.785 582.537 321.963 584.301 318.709C585.892 315.828 586.923 314.069 587.063 314.137Z" fill="#1D2A30"/>
<path d="M528.764 418.575C528.764 418.575 558.533 413.935 566.508 392.023C566.788 391.253 566.097 390.483 565.309 390.708C560.671 392.033 547.219 397.46 528.764 418.575Z" fill="#F03658"/>
<path d="M528.764 418.575C547.219 397.46 560.671 392.033 565.309 390.708C565.404 390.681 565.497 390.668 565.588 390.668C566.133 390.668 566.572 391.129 566.572 391.669C566.572 391.785 566.552 391.904 566.508 392.023C559.529 411.2 535.856 417.148 530.055 418.333C529.465 418.455 529.061 418.525 528.877 418.557C528.803 418.569 528.764 418.575 528.764 418.575Z" fill="#BC283B"/>
<path d="M558.687 397.828C558.781 397.952 557.249 399.301 554.673 401.353C552.096 403.408 548.471 406.159 544.379 409.079C540.288 412.004 536.489 414.52 533.673 416.239C530.852 417.955 529.024 418.872 528.951 418.745C528.865 418.604 530.541 417.451 533.236 415.572C536.259 413.437 539.805 410.931 543.725 408.161C547.637 405.38 551.179 402.861 554.196 400.716C556.892 398.829 558.592 397.704 558.687 397.828Z" fill="#1D2A30"/>
<path d="M493.54 473.363L502.077 529.372L536.179 529.315L547.668 473.363H493.54Z" fill="#365462"/>
<path d="M542.672 494.971C542.679 494.984 542.583 495.055 542.387 495.179C542.185 495.294 541.899 495.495 541.488 495.691C540.673 496.089 539.401 496.591 537.676 496.828C535.959 497.063 533.772 497.017 531.405 496.239C529.06 495.477 526.495 493.96 524.664 491.344C523.788 490.017 523.18 488.413 523.083 486.659C522.955 484.943 523.627 482.859 525.397 481.843C527.16 480.824 529.433 481.192 531.109 482.312C532.863 483.451 533.888 485.443 534.376 487.458C534.865 489.503 534.921 491.631 534.8 493.784C534.663 495.936 534.265 498.143 533.417 500.251C532.592 502.359 531.263 504.353 529.464 505.891C527.675 507.42 525.38 508.516 522.901 508.631C520.424 508.741 518.056 507.887 516.076 506.649C514.085 505.4 512.395 503.817 510.984 502.047C509.587 500.276 508.535 498.159 508.404 495.894C508.296 493.671 509.079 491.356 510.825 489.96C512.593 488.523 515.103 488.627 516.867 489.591C518.684 490.508 520.036 492.249 520.353 494.158C521.009 498 518.767 501.465 516.041 503.023C513.251 504.617 510.217 504.663 507.809 504.213C505.364 503.737 503.435 502.776 501.944 501.917C500.452 501.044 499.377 500.243 498.659 499.694C497.944 499.137 497.587 498.823 497.607 498.798C497.625 498.771 498.02 499.036 498.769 499.54C499.52 500.039 500.621 500.787 502.121 501.6C503.619 502.399 505.536 503.291 507.9 503.699C510.233 504.088 513.131 503.976 515.705 502.453C518.208 500.995 520.225 497.713 519.593 494.306C519.3 492.632 518.111 491.131 516.493 490.324C514.908 489.484 512.812 489.44 511.36 490.635C509.901 491.803 509.185 493.859 509.296 495.847C509.419 497.849 510.375 499.81 511.705 501.482C513.047 503.158 514.689 504.687 516.565 505.859C518.44 507.024 520.624 507.798 522.859 507.698C525.087 507.595 527.193 506.604 528.86 505.183C530.536 503.752 531.779 501.906 532.567 499.91C533.375 497.917 533.767 495.803 533.909 493.725C534.036 491.646 533.987 489.57 533.539 487.66C533.091 485.77 532.163 483.986 530.653 482.998C529.177 481.994 527.212 481.694 525.783 482.516C524.327 483.337 523.715 485.052 523.804 486.628C523.872 488.223 524.42 489.74 525.216 490.98C526.893 493.452 529.331 494.97 531.573 495.744C533.839 496.541 535.955 496.64 537.632 496.465C541.027 496.08 542.623 494.835 542.672 494.971Z" fill="#1D2A30"/>
</g>
<defs>
<clipPath id="clip0">
<rect width="591.707" height="578.653" fill="white"/>
</clipPath>
</defs>
</svg>
