<svg width="618" height="450" viewBox="0 0 618 450" fill="none" xmlns="http://www.w3.org/2000/svg">
<path d="M290.473 375.816C274.119 375.864 257.765 376.245 241.44 378.006C235.284 378.669 229.258 380.13 223.089 380.719C210.766 381.895 198.663 384.09 186.297 385.103C176.337 385.918 166.337 386.399 156.407 387.433C147.098 388.403 136.791 388.18 127.552 386.577C120.713 385.391 113.843 384.723 107.119 382.818C99.5963 380.687 91.4247 379.163 83.5873 379.218C72.4122 379.297 61.5281 379.305 50.8332 383.069C47.0786 384.389 42.4825 386.561 39.6312 389.333C33.1049 395.679 32.2216 411.513 38.7381 418.095C49.7137 429.173 73.1403 433.519 88.5246 433.724C105.384 433.949 121.762 432.736 138.645 432.022C154.333 431.359 169.983 430.415 185.697 430.448C217.792 430.516 249.892 430.448 281.929 428.37C312.029 426.416 342.204 427.087 372.37 427.087C403.303 427.087 434.028 427.323 464.738 431.309C478.119 433.046 491.75 433.654 505.199 434.871C517.242 435.961 528.816 434.85 540.812 433.842C550.885 432.997 560.893 430.488 570.043 426.247C577.285 422.891 590.201 412.462 592.42 404.449C598.651 381.986 504.655 382.526 490.223 382.577C474.079 382.633 457.806 383.148 441.674 382.551C434.888 382.3 428.203 381.014 421.58 379.605C414.983 378.201 408.337 378.558 401.647 377.968C373.75 375.508 345.79 375.868 317.804 375.868C308.697 375.868 299.585 375.79 290.473 375.816" fill="#F1F2F2"/>
<path d="M161.108 321.554L162.549 355.025L158.324 411.937L152.001 412.387L144.32 360.698L133.693 316.958L161.108 321.554" fill="#3B455A"/>
<path d="M152.228 415.054L159.308 417.99L162.483 414.324L158.822 411.145L151.984 411.631L152.228 415.054Z" fill="#2E3644"/>
<path d="M116.353 309.711L114.965 335.01L119.081 410.238L125.412 410.554L134.899 361.215L143.268 307.109L116.353 309.711" fill="#3B455A"/>
<path d="M125.242 413.225L118.225 416.31L114.974 412.711L118.567 409.456L125.413 409.798L125.242 413.225Z" fill="#2E3644"/>
<path d="M153.16 235.178L133.406 233.059C133.406 233.059 122.416 234.235 114.959 260.365C110.811 274.903 109.548 297.808 109.244 315.269C109.71 317.76 112.421 328.672 123.882 326.821C143.564 323.642 154.04 320.464 162.611 322.053C169.912 323.642 169.295 313.578 168.492 305.897L165.583 282.131L153.16 235.178" fill="#CCD2D9"/>
<path d="M149.345 210.558C144.366 209.46 139.241 208.475 134.257 209.463C133.165 209.68 131.993 210.06 131.401 211.003C131.172 211.37 131.051 211.791 130.939 212.208C129.68 216.889 128.085 223.828 131.163 228.142C131.75 228.964 132.538 229.617 133.386 230.147C134.518 230.856 135.772 231.338 137.069 231.594C136.8 232.757 136.427 233.897 135.953 234.994C137.094 236.714 142.41 236.921 143.393 235.271C143.449 233.844 143.504 232.416 143.558 230.988C144.206 230.727 144.832 230.408 145.419 230.021C147.691 228.523 149.188 226.249 150.058 223.704C151.005 220.934 152.337 218.301 153.203 215.477C153.518 214.449 153.767 213.275 153.226 212.345C152.651 211.355 151.409 211.019 150.292 210.769C149.977 210.698 149.661 210.629 149.345 210.558" fill="#AA6755"/>
<path d="M132.772 213.235C135.234 211.651 138.925 210.968 141.239 211.137C148.236 211.644 150.799 216.788 151.172 223.228C153.1 220.775 156.716 217.69 156.935 214.535C157.114 211.952 156.757 208.429 155.311 206.198C153.959 204.11 150.5 202.964 148.444 201.754C146.505 200.614 144.566 199.474 142.628 198.334C142.224 198.097 141.81 197.855 141.35 197.775C140.804 197.68 140.249 197.82 139.714 197.958C135.131 199.144 130.549 200.33 125.967 201.516C125.087 201.743 124.083 202.076 123.76 202.926C123.562 203.444 123.678 204.022 123.797 204.563C124.316 206.944 125.315 209.379 125.563 211.791C125.842 213.193 126.677 220.377 129.156 219.548C129.884 218.356 129.993 216.888 130.56 215.612C130.979 214.669 131.775 213.878 132.772 213.235" fill="#3B455A"/>
<path d="M133.406 233.059L126.104 235.284L99.4382 263.253L97.8511 272.471L110.599 293.544L114.041 285.82L108.645 270.246L117.216 264.207L128.644 238.462L133.406 233.059" fill="#CCD2D9"/>
<path d="M363.952 18.3437L288.375 19.098L235.468 73.1368L236.222 148.805L290.196 201.776L365.772 201.021L418.679 146.982L417.925 71.3149L363.952 18.3437" fill="#EFEFEF"/>
<path d="M411.936 73.8687L361.52 24.3883L290.926 25.0937L241.506 75.5708L242.21 146.251L292.626 195.731L363.221 195.026L412.641 144.549L411.936 73.8687" fill="#D34E4E"/>
<path d="M289.69 101.144L289.697 101.872L281.753 101.952L281.748 101.405C281.713 97.8846 279.568 95.6594 276.051 95.6942C272.292 95.7314 270.249 97.6343 270.274 100.184C270.359 108.622 290.5 103.443 290.653 118.742C290.748 128.273 284.721 132.036 276.111 132.123C268.471 132.199 261.697 127.895 261.612 119.335C261.607 118.85 261.662 118.302 261.659 117.999L269.724 117.919C269.725 118.04 269.67 118.587 269.673 118.89C269.712 122.837 272.164 125.483 276.408 125.441C281.077 125.394 282.69 122.889 282.666 120.461C282.567 110.565 262.434 116.656 262.276 100.811C262.198 92.9183 268.708 89.0888 276.046 89.0157C283.443 88.9414 289.604 92.5842 289.69 101.144Z" fill="white"/>
<path d="M322.144 96.205L311.837 96.3085L312.183 131.034L304.422 131.111L304.075 96.3861L293.767 96.4885L293.698 89.5675L322.075 89.2845L322.144 96.205" fill="white"/>
<path d="M332.455 108.488L332.486 111.524C332.568 119.841 335.711 124.849 341.896 124.787C348.081 124.725 351.123 119.656 351.04 111.338L351.009 108.303C350.927 99.9855 347.784 94.9782 341.599 95.0395C335.415 95.1013 332.373 100.171 332.455 108.488ZM359.029 109.741C359.175 124.432 352.695 131.357 341.962 131.465C331.229 131.572 324.613 124.777 324.466 110.086C324.32 95.3944 330.801 88.4684 341.533 88.3615C352.266 88.254 358.882 95.0496 359.029 109.741" fill="white"/>
<path d="M372.351 95.7038L372.468 107.421L378.774 107.358C382.533 107.32 384.572 104.992 384.534 101.168C384.5 97.7687 382.356 95.6037 378.657 95.6408L372.351 95.7038ZM372.537 114.281L372.697 130.429L364.936 130.507L364.521 88.861L379.377 88.7119C387.987 88.6264 392.465 93.8633 392.538 101.088C392.616 108.92 387.453 114.131 379.631 114.21L372.537 114.281" fill="white"/>
<path d="M456.772 409.488L457.28 413.439L449.895 418.406L445.44 414.963L448.88 410.504L456.265 405.537L456.772 409.488" fill="#2E3644"/>
<path d="M457.022 408.162L451.327 357.773L458.179 301.362L456.638 289.363L426.031 288.199L424.927 307.729L430.064 357.85L449.396 410.737L457.022 408.162" fill="#CCD2D9"/>
<path d="M403.573 293.845L403.492 344.694L413.715 410.154L421.073 410.08L425.118 349.545L434.584 288.957L403.573 293.845" fill="#CCD2D9"/>
<path d="M421.061 413.188L413.144 417.25L409.126 413.307L413.065 409.283L421.022 409.204L421.061 413.188" fill="#2E3644"/>
<path d="M461.346 311.14C461.276 308.936 461.154 307.097 461.136 306.44C460.978 300.529 460.453 294.631 459.713 288.762C459.051 283.503 458.215 270.446 457.316 265.219C456.574 260.903 453.987 250.131 452.118 246.128C447.471 236.173 448.907 235.253 428.492 232.297C419.545 231.002 417.43 236.585 410.115 243.005C409.393 243.638 409.433 247.408 409.266 248.406C408.971 250.164 408.655 251.919 408.293 253.666C408.009 255.039 407.694 256.408 407.342 257.768L407.343 257.767C407.343 257.767 401.202 285.747 397.142 291.689C393.08 297.631 384.691 305.939 398.724 311.011C401.212 311.816 403.715 312.582 406.303 312.991C406.303 312.991 417.78 311.714 423.683 311.758C429.119 311.799 434.578 312.35 439.922 313.273C443.496 313.871 447.143 314.74 450.339 316.411C453.389 318.007 455.591 320.353 458.685 322.004C458.978 322.161 459.299 322.323 459.633 322.277C461.41 322.03 461.494 315.777 461.346 311.14" fill="#7FC5A3"/>
<path d="M428.468 235.105C429.498 235.614 431.93 235.797 434.466 234.802C434.976 234.601 435.322 234.108 435.315 233.559C435.294 232.017 435.17 230.475 434.944 228.949C436.846 228.28 439.045 227.276 439.376 225.285C439.48 224.657 439.372 224.016 439.264 223.39C438.816 220.799 438.37 218.21 437.923 215.619C437.768 214.723 437.603 213.801 437.117 213.033C436.263 211.686 434.606 211.097 433.035 210.824C429.03 210.128 424.664 210.997 421.557 213.624C420.731 214.323 419.983 215.164 419.619 216.184C419.057 217.757 419.478 219.492 419.901 221.108C420.292 222.599 420.683 224.091 421.074 225.582C421.524 227.298 422.174 229.248 423.825 229.891C424.701 230.232 425.736 230.133 426.53 230.638C427.929 231.529 427.741 233.613 428.468 235.105" fill="#EAC1A4"/>
<path d="M405.346 209.272C404.953 208.625 404.529 208.001 404.054 207.415C403.027 206.147 401.761 205.061 400.935 203.653C400.108 202.246 399.817 200.337 400.809 199.042C401.449 198.205 402.487 197.787 403.497 197.489C406.824 196.509 410.415 196.442 413.775 197.299C416.976 198.115 419.841 199.466 423.063 198.261C426.091 197.129 428.278 197.59 431.442 198.721C434.867 199.944 439.463 200.233 442.563 201.959C443.857 202.681 444.891 203.807 445.696 205.053C448.485 209.365 448.5 215.313 445.733 219.641C445.113 220.611 444.37 221.498 443.589 222.346C441.974 224.1 440.042 226.267 437.819 226.916C437.766 224.926 439.577 218.65 438.05 217.019C435.627 214.43 430.149 215.332 427.143 215.97C423.865 216.666 420.943 218.99 417.692 219.486C415.353 219.844 412.368 218.696 410.379 217.486C407.925 215.99 406.782 211.633 405.346 209.272" fill="#3B455A"/>
<path d="M445.44 236.123L458.179 247.298L472.389 277.197L454.441 298.576L451.353 286.62L445.44 236.123" fill="#7FC5A3"/>
<path d="M362.948 244.714L356.622 240.636L358.245 237.853L363.195 239.685L363.352 238.012L368.341 242.162L367.044 245.284L362.948 244.714Z" fill="#EAC1A4"/>
<path d="M422.185 233.228L389.178 246.777L368.341 242.162L366.305 246.152L385.309 260.16L411.503 257.038L422.185 233.228Z" fill="#7FC5A3"/>
<path d="M318.65 412.829L318.472 416.287L325.203 420.102L328.835 416.821L325.558 413.185L318.827 409.371L318.65 412.829" fill="#2E3644"/>
<path d="M313.162 307.869L312.622 318.373L324.271 364.609L318.346 411.695L325.127 413.421L343.955 356.847L344.292 339.823L339.615 304.825L313.162 307.869Z" fill="#40495F"/>
<path d="M364.744 306.876L369.964 350.772L367.768 408.328L361.406 409.011L351.783 357.155L337.474 305.804L364.744 306.876" fill="#40495F"/>
<path d="M361.731 411.692L368.979 414.397L372.049 410.584L368.24 407.51L361.362 408.249L361.731 411.692Z" fill="#2E3644"/>
<path d="M367.312 299.568C360.762 286.213 358.147 271.569 354.715 257.164C353.7 252.914 352.648 248.573 350.287 244.898C347.576 240.678 343.83 238.787 339.681 238.06C334.4 237.135 328.466 238.094 323.179 238.537C319.98 248.543 317.897 242.866 314.141 252.675C313.363 254.708 311.152 272.321 310.332 274.339C310.332 274.339 301.701 301.402 304.463 322.806C304.491 323.018 304.514 323.224 304.539 323.432C305.096 323.528 305.63 323.625 306.13 323.726C313.581 325.236 321.182 326.051 328.787 325.952C335.534 325.864 342.279 325.046 348.831 323.423C357.799 321.202 368.449 322.11 375.78 316.193C373.631 311.81 369.462 303.951 367.312 299.568" fill="#474EBB"/>
<path d="M290.127 241.511L297.495 201.464L303.756 202.676L304.043 232.894L290.127 241.511" fill="#474EBB"/>
<path d="M290.127 241.511L326.688 265.365L321.492 240.951L299.03 230.684L290.127 241.511" fill="#474EBB"/>
<path d="M337.459 221.059C332.714 213.899 320.497 214.288 320.319 224.162C320.267 227.129 320.577 230.177 321.888 232.839C323.198 235.501 325.647 237.73 328.579 238.168L328.629 238.174C328.725 238.931 328.821 239.689 328.918 240.446C328.938 240.608 328.967 240.787 329.091 240.894C329.232 241.017 329.441 241.001 329.627 240.98C330.532 240.872 331.437 240.765 332.342 240.657C332.791 240.604 333.257 240.545 333.636 240.298C334.465 239.759 334.546 238.566 334.326 237.601C334.273 237.37 334.209 237.14 334.143 236.91C338.81 233.74 340.562 225.739 337.459 221.059" fill="#AA6755"/>
<path d="M318.03 212.632C315.885 213.127 314.931 215.772 313.466 217.54C312.248 219.011 310.573 219.931 309.24 221.277C307.907 222.623 306.905 224.732 307.601 226.607C305.633 226.397 303.521 226.22 301.829 227.292C300.137 228.365 299.295 231.221 300.731 232.738C302.017 234.097 304.271 233.651 305.594 234.965C307.688 237.045 306.225 242.128 308.922 242.993C309.571 243.201 310.277 243.035 310.922 243.259C311.723 243.536 312.261 244.341 312.835 245.019C315.436 248.093 319.918 249.008 323.262 247.146C325.052 245.255 325.969 242.44 325.799 239.697C325.593 236.391 323.623 235.982 322.279 233.332C320.81 230.435 320.516 226.871 321.493 223.789C322.129 221.783 323.378 219.779 325.17 218.869C325.9 218.499 325.91 219.225 326.531 218.304C326.799 217.909 326.924 216.761 326.849 216.263C324.167 215.423 320.852 211.981 318.03 212.632" fill="#3B455A"/>
<path d="M340.972 207.942C342.132 207.822 343.25 207.334 344.417 207.38C346.171 207.448 346.689 209.039 347.642 210.223C348.697 211.534 350.165 213.272 351.606 214.048C352.644 214.607 353.825 214.695 354.943 215.002C356.061 215.309 357.23 215.951 357.668 217.123C358.084 218.235 357.731 219.518 358.054 220.663C358.567 222.36 359.181 223.09 359.333 224.969C359.412 225.939 359.48 226.972 359.061 227.819C358.51 228.935 357.284 229.399 356.142 229.641C355.001 229.883 353.776 230.02 352.859 230.791C350.87 232.464 352.207 234.616 352.36 236.801C352.592 240.125 349.84 243.199 346.806 243.177C344.233 243.158 341.933 241.079 341.033 238.488C340.583 237.191 340.624 235.801 340.16 234.507C339.712 233.261 338.348 231.825 339.081 230.408C339.26 230.063 339.559 229.8 339.697 229.433C339.808 229.136 339.802 228.798 339.756 228.477C339.594 227.364 338.934 226.341 338.028 225.796C337.377 225.405 336.598 225.239 336.069 224.665C335.462 224.009 335.347 223.008 335.062 222.131C334.374 220.012 332.446 218.425 330.41 218.303C329.068 218.222 327.923 218.313 326.616 217.901C326.418 217.839 323.376 216.728 323.487 217.183C323.294 216.391 323.475 215.562 323.682 214.784C324.023 213.506 324.455 212.222 325.25 211.225C327.822 207.999 329.731 212.398 332.168 210.762C332.757 210.368 333.01 209.587 333.451 209.006C334.284 207.911 335.722 207.621 337.036 207.68C338.351 207.74 339.666 208.076 340.972 207.942" fill="#3B455A"/>
<path d="M350.242 260.583C350.932 263.631 353.447 266.519 355.663 269.696C358.267 273.429 360.87 277.161 363.474 280.894L355.004 307.777L360.292 309.596L375.559 282.775C375.544 272.062 365.991 266.571 363.485 260.556C362.181 257.425 352.154 247.74 350.287 244.898C347.541 240.716 351.277 247.781 347.918 251.18C345.103 254.028 349.696 258.163 350.242 260.583" fill="#474EBB"/>
<path d="M358.812 311.214L357.722 312.686L355.172 312.076L353.053 313.48L352.549 312.114L356.247 308.263L359.085 309.233L358.812 311.214" fill="#AA6755"/>
<path d="M298.908 199.401L301.65 194.824L303.066 198.033L304.657 196.999L305.255 198.815L303.227 202.589L298.967 201.762L298.908 199.401Z" fill="#AA6755"/>
<path d="M236.662 405.824L243.662 409.677L243.054 412.968L230.615 411.258L231.283 406.519L236.662 405.824" fill="#2E3644"/>
<path d="M205.006 409.433L200.137 409.374L198.947 413.502L199.071 413.538L199.04 413.542L207.15 418.209L210.982 418.585L211.411 414.2L210.367 413.456L205.006 409.433" fill="#2E3644"/>
<path d="M220.021 331.671C220.803 331.589 222.937 359.642 222.937 359.642L207.781 410.622L199.042 408.9L204.366 357.999C204.366 357.999 185.866 336.64 191.194 320.685C199.243 324.593 220.021 331.671 220.021 331.671Z" fill="#474EBB"/>
<path d="M241.856 331.909L243.625 356.92L238.748 406.703L229.753 406.243C229.753 406.243 227.585 359.092 226.694 358.13C225.803 357.168 218.142 332.427 218.142 332.427L241.856 331.909Z" fill="#474EBB"/>
<path d="M230.031 343.324C201.462 342.798 199.365 328.366 193.075 326.791C186.785 325.216 190.064 317.717 190.064 317.717C190.064 317.717 191.254 314.371 191.764 312.621C195.433 300.027 206.449 283.862 206.453 283.856C211.886 276.433 217.34 269.876 222.048 265.917C236.052 254.143 251.052 253.593 251.052 253.593C272.659 260.357 265.033 270.528 265.281 273.203C258.174 279.725 253.026 289.496 249.23 299.987C247.441 305.544 245.331 315.142 246.805 326.791C247.278 330.528 247.825 333.767 248.367 336.589C248.473 340.271 244.935 343.56 230.031 343.324" fill="#8EC3CB"/>
<path d="M251.135 255.873C251.135 255.873 255.945 253.235 258.923 257.822C262.538 263.391 242.1 288.506 242.585 342.219C237.23 343.306 223.428 345.898 209.193 339.172C212.426 323.214 226.383 275.086 251.135 255.873" fill="white"/>
<path d="M270.972 334.924L276.561 340.116L278.882 337.821L275.84 333.417L277.44 332.841L272.117 328.982L269.383 331.042L270.972 334.924" fill="#EBCEB1"/>
<path d="M265.232 263.394L267.182 267.924L265.319 301.236C265.319 301.236 275.167 329.752 274.902 329.752C274.635 329.752 268.247 331.883 268.247 331.883L253.874 303.102V285.513L265.232 263.394" fill="#8EC3CB"/>
<path d="M261.707 238.912C264.128 240.804 266.228 244.823 265.395 247.988C264.993 249.512 263.894 250.533 263.529 252.181C262.797 255.428 257.158 257.819 259.53 261.586C260.749 263.523 263.11 264.341 265.292 265.026C265.557 265.11 265.835 265.193 266.107 265.139C266.555 265.05 266.856 264.603 266.939 264.153C267.022 263.705 266.937 263.243 266.889 262.789C266.393 258.035 269.606 253.276 270.797 248.783C271.985 244.299 271.923 239.18 268.819 235.455C266.171 235.7 265.099 235.189 263.4 237.237L261.707 238.912" fill="#3B455A"/>
<path d="M256.037 257.925C259.188 258.173 262.266 256.444 264.265 253.991C266.263 251.539 267.315 248.447 267.969 245.35C270.146 235.046 257.543 231.713 250.899 238.016C245.109 243.509 246.874 257.204 256.037 257.925Z" fill="#EAC1A4"/>
<path d="M240.345 255.991C242.02 255.867 243.69 255.693 245.191 254.609C247.617 252.856 249.049 248.904 250.538 246.402C252.106 243.764 253.902 240.936 256.798 239.929C258.69 239.272 260.369 239.7 262.146 240.413C263.364 240.901 263.218 241.378 264.512 241.158C265.504 240.99 266.797 239.784 267.342 238.991C268.261 237.653 268.321 235.86 267.833 234.312C267.081 231.928 265.682 230.314 263.459 229.322C255.657 225.837 247.786 228.027 242.336 234.797C239.717 238.051 238.778 242.506 236.146 245.59C234.52 247.495 232.498 248.369 230.945 250.472C226.915 255.928 220.301 262.293 217.921 268.685C217.833 268.922 217.752 269.192 217.861 269.419C218.084 269.882 218.775 269.723 219.235 269.493C221.917 268.153 224.6 266.813 227.283 265.472C228.337 264.946 229.405 264.41 230.273 263.613C232.434 261.629 233.183 258.204 235.806 256.893C237.237 256.178 238.793 256.106 240.345 255.991" fill="#3B455A"/>
<path d="M229.386 269.523L207.826 264.46L202.063 235.771L209.221 236.398L214.746 255.133L242.694 255.932L244.291 258.064L229.386 269.523" fill="#8EC3CB"/>
<path d="M208.071 236.297L207.365 228.775L202.044 224.701L201.73 226.894L203.609 228.775C203.609 228.775 204.078 230.969 205.409 232.066C205.252 233.319 204.235 235.983 204.235 235.983L208.071 236.297" fill="#EBCEB1"/>
<path d="M568.363 261.39L502.782 195.732C497.273 190.216 488.341 190.216 482.832 195.732L417.254 261.39C411.745 266.906 411.745 275.848 417.254 281.364L482.832 347.023C488.341 352.538 497.273 352.538 502.782 347.023L568.363 281.364C573.869 275.848 573.869 266.906 568.363 261.39Z" fill="#EBB044"/>
<path d="M523.411 276.882V253.582C523.411 236.687 509.682 222.942 492.807 222.942C475.933 222.942 462.204 236.687 462.204 253.582V307.325H477.183V253.582C477.183 244.957 484.192 237.939 492.808 237.939C501.424 237.939 508.433 244.957 508.433 253.582V276.882H492.366L515.922 307.325L539.478 276.882H523.411" fill="#3B455A"/>
<path d="M323.756 288.181C312.933 277.345 298.543 271.377 283.237 271.377C267.931 271.377 253.541 277.345 242.718 288.181C231.895 299.017 225.934 313.424 225.934 328.749C225.934 344.075 231.895 358.482 242.718 369.317C253.541 380.154 267.931 386.121 283.237 386.121C298.543 386.121 312.933 380.154 323.756 369.317C334.579 358.482 340.54 344.075 340.54 328.749C340.54 313.424 334.579 299.017 323.756 288.181" fill="#EFEFEF"/>
<path d="M336.493 328.749C336.493 299.302 312.649 275.429 283.237 275.429C253.825 275.429 229.982 299.302 229.982 328.749C229.982 358.197 253.825 382.069 283.237 382.069C312.649 382.069 336.493 358.197 336.493 328.749Z" fill="#D34E4E"/>
<path d="M323.851 320.381H242.624V337.117H323.851V320.381Z" fill="white"/>
<path d="M180.494 182.673L182.35 173.738L178.764 170.5L176.048 173.716L175.291 177.354L172.991 177.785L174.118 184.025L180.494 182.673" fill="#AA6755"/>
<path d="M152.869 235.259L169.151 223.649L174.118 184.025L180.494 182.673L180.224 223.862L175.744 233.207L156.563 250.688L152.869 235.259Z" fill="#CCD2D9"/>
<path d="M139.186 281.816C139.186 258.233 120.092 239.115 96.5374 239.115C72.9832 239.115 53.8887 258.233 53.8887 281.816C53.8887 305.399 72.9832 324.516 96.5374 324.516C120.092 324.516 139.186 305.399 139.186 281.816Z" fill="#3B455A"/>
<path d="M118.814 273.965L98.3628 258.102V268.521H92.6907C82.5285 268.521 74.2603 276.799 74.2603 286.974V305.53H85.1365V286.974C85.1365 282.803 88.5254 279.41 92.6907 279.41H98.3628V289.829L118.814 273.965Z" fill="white"/>
<path d="M219.838 184.773L156.839 71.2896C153.98 66.1405 146.625 66.0201 143.6 71.0742L76.94 182.441C73.9146 187.494 77.4889 193.931 83.3722 194.028L213.033 196.143C218.916 196.239 222.698 189.923 219.838 184.773" fill="#EBB044"/>
<path d="M140.296 164.141L157.112 164.415L156.841 181.045L140.025 180.77L140.296 164.141ZM144.124 157.178L139.987 107.106L159.276 107.524L153.615 157.333L144.124 157.178Z" fill="#3B455A"/>
</svg>
